<svg width="547" height="435" viewBox="0 0 547 435" fill="none" xmlns="http://www.w3.org/2000/svg">
<g clip-path="url(#clip0)">
<path opacity="0.1" d="M320.796 73.5127C286.185 72.3091 253.216 61.134 221.738 48.905C190.261 36.676 159.083 23.1258 125.3 16.6475C103.572 12.4802 78.7204 11.8918 61.2169 23.543C44.3658 34.777 38.9217 54.1154 35.9964 72.079C33.7931 85.5919 32.4989 99.8108 38.5366 112.462C42.724 121.246 50.1629 128.629 55.3022 137.07C73.2014 166.343 60.5538 202.441 41.1571 231.023C32.0657 244.435 21.5037 257.236 14.4873 271.498C7.47095 285.759 4.21946 302.124 10.3588 316.685C16.45 331.129 30.9587 341.956 46.6707 349.579C78.5921 365.066 116.193 369.495 152.884 372.004C234.081 377.562 315.705 375.155 397.116 372.748C427.245 371.854 457.504 370.95 487.141 366.291C503.602 363.702 520.592 359.599 532.545 349.681C547.711 337.093 551.471 315.776 541.31 299.995C524.256 273.52 477.136 266.945 465.199 238.529C458.643 222.892 465.381 205.474 474.911 190.966C495.361 159.854 529.635 132.555 531.443 96.9917C532.684 72.5605 516.202 48.1026 490.724 36.5423C464.023 24.3829 426.983 25.9235 407.293 45.9788C387.003 66.6439 351.354 74.5719 320.796 73.5127Z" fill="#4B698D"/>
<path d="M232.872 369.383L49.826 368.49L31.6379 325.817L95.9512 321.147L84.7421 274.36L211.946 257.867L90.1381 215.51L100.898 212.953L296.763 244.916L285.977 317.932L270.559 358.058L232.872 369.383Z" fill="#4B698D"/>
<path d="M52.6336 350.617C52.6336 350.617 63.8641 348.82 70.6024 356.758C70.6024 356.758 65.661 360.653 55.0294 355.26L52.6336 350.617Z" fill="#4B698D"/>
<path d="M51.4571 350.44C51.4571 350.44 44.2909 359.262 47.8205 369.083C47.8205 369.083 53.6604 366.746 54.2968 354.838L51.4571 350.44Z" fill="#4B698D"/>
<path d="M45.0182 335.938C45.0182 335.938 49.5104 327.695 67.4792 339.233C67.4792 339.233 65.0834 344.775 57.1472 344.326C49.211 343.877 47.1146 340.282 45.0182 335.938Z" fill="#4B698D"/>
<path d="M43.8578 335.344C43.8578 335.344 34.5364 334.274 33.6327 355.619C33.6327 355.619 39.542 356.844 43.7401 350.093C47.9382 343.342 46.2162 339.554 43.8578 335.344Z" fill="#4B698D"/>
<path d="M38.4297 318.317C38.4297 318.317 43.6706 303.788 62.6876 314.123C62.6876 314.123 58.3451 327.454 40.3763 323.26L38.4297 318.317Z" fill="#77B62B"/>
<path d="M32.5898 296.598C32.5898 296.598 42.4727 281.919 59.9922 295.528C59.9922 295.528 53.8529 309.308 34.0872 301.819L32.5898 296.598Z" fill="#77B62B"/>
<path d="M30.4935 275.927C30.4935 275.927 42.0234 262.441 59.3719 275.927C59.3719 275.927 48.4409 287.76 30.4935 279.372V275.927Z" fill="#77B62B"/>
<path d="M28.6966 255.851C28.6966 255.851 40.3763 241.771 56.9974 255.102C56.9974 255.102 43.8203 267.534 28.6966 259.146V255.851Z" fill="#77B62B"/>
<path d="M29.7448 238.026C29.7448 238.026 42.0448 219.902 57.5964 232.184C57.5964 232.184 44.4193 247.762 29.7448 241.471V238.026Z" fill="#77B62B"/>
<path d="M32.5898 217.206C32.5898 217.206 45.6172 199.231 60.7409 213.012C60.7409 213.012 45.3177 228.589 32.5898 220.501V217.206Z" fill="#77B62B"/>
<path d="M36.9323 198.595C36.9323 198.595 52.3555 181.701 65.8107 188.431C65.8107 188.431 49.7404 206.373 36.2585 203.078L36.9323 198.595Z" fill="#77B62B"/>
<path d="M42.3229 180.952C42.3229 180.952 60.1206 160.26 70.474 167.172C70.474 167.172 57.3611 183.22 41.0608 184.825L42.3229 180.952Z" fill="#77B62B"/>
<path d="M50.104 160.49C50.104 160.49 65.6823 143.597 77.0626 147.791C77.0626 147.791 63.7357 165.316 48.013 165.765L50.104 160.49Z" fill="#77B62B"/>
<path d="M57.1472 141.35C57.1472 141.35 74.3673 125.173 81.8543 128.019C81.8543 128.019 69.4258 145.993 56.3985 144.945L57.1472 141.35Z" fill="#77B62B"/>
<path d="M64.0352 123.675C64.0352 123.675 78.8595 104.347 86.9508 105.845C86.9508 105.845 77.961 123.076 64.0352 125.638V123.675Z" fill="#77B62B"/>
<path d="M71.5115 99.843C71.5115 99.843 84.6138 85.0302 91.6943 85.0623C91.6943 85.0623 81.3516 104.855 70.9714 104.674L71.5115 99.843Z" fill="#77B62B"/>
<path d="M75.9395 83.9765L88.5979 53.1206C88.5979 53.1206 89.229 81.0129 74.3298 89.7005L75.9395 83.9765Z" fill="#77B62B"/>
<path d="M81.0788 49.9483C81.0788 49.9483 83.1752 24.1798 81.8275 22.0828C81.8275 22.0828 90.8761 43.5075 80.9933 61.3321L81.0788 49.9483Z" fill="#77B62B"/>
<path d="M37.9377 317.974C37.9377 317.974 24.814 309.838 16.3163 329.743C16.3163 329.743 27.996 337.5 39.4832 323.051L37.9377 317.974Z" fill="#77B62B"/>
<path d="M32.1673 295.769C32.1673 295.769 16.0703 288.424 8.26244 309.207C8.26244 309.207 20.6962 317.766 33.6327 301.022L32.1673 295.769Z" fill="#77B62B"/>
<path d="M29.7448 277.163C29.7448 277.163 18.2148 263.677 0.866348 277.163C0.866348 277.163 11.7974 288.996 29.7448 280.608V277.163Z" fill="#77B62B"/>
<path d="M28.3008 255.851C28.3008 255.851 16.6211 241.771 0 255.102C0 255.102 13.1771 267.534 28.3008 259.146V255.851Z" fill="#77B62B"/>
<path d="M29.7448 238.54C29.7448 238.54 21.5519 218.238 3.7435 226.969C3.7435 226.969 13.3696 244.97 29.0175 241.91L29.7448 238.54Z" fill="#77B62B"/>
<path d="M33.622 217.104C33.622 217.104 25.4772 196.45 7.41748 206.025C7.41748 206.025 18.4768 224.957 32.8198 220.292L33.622 217.104Z" fill="#77B62B"/>
<path d="M38.6703 198.697C38.6703 198.697 35.4616 176.052 20.4876 174.025C20.4876 174.025 23.6642 197.905 36.6542 202.778L38.6703 198.697Z" fill="#77B62B"/>
<path d="M42.7026 180.995C42.7026 180.995 41.4512 153.712 29.0709 152.76C29.0709 152.76 29.4881 173.468 41.3068 184.857L42.7026 180.995Z" fill="#77B62B"/>
<path d="M51.3875 159.725C51.3875 159.725 47.6975 137.038 35.8788 134.267C35.8788 134.267 37.3441 156.237 50.2163 165.294L51.3875 159.725Z" fill="#77B62B"/>
<path d="M58.5483 141.537C58.5483 141.537 58.4253 117.903 51.2057 114.431C51.2057 114.431 46.7295 135.829 56.4573 144.554L58.5483 141.537Z" fill="#77B62B"/>
<path d="M64.586 123.408C64.586 123.408 63.5753 99.0728 56.099 95.6438C56.099 95.6438 53.5427 114.902 63.4683 125.002L64.586 123.408Z" fill="#77B62B"/>
<path d="M72.5544 101.785C72.5544 101.785 72.5116 81.9918 67.1744 77.3484C67.1744 77.3484 61.8694 99.0299 69.7681 105.765L72.5544 101.785Z" fill="#77B62B"/>
<path d="M75.3138 83.0028L70.1211 50.0605C70.1211 50.0605 63.0672 77.0541 75.5598 88.9514L75.3138 83.0028Z" fill="#77B62B"/>
<path d="M76.3246 50.2586C76.3246 50.2586 62.9977 28.1116 63.2705 25.6509C63.2705 25.6509 64.6877 48.8624 81.4532 60.4226L76.3246 50.2586Z" fill="#77B62B"/>
<path d="M77.8862 43.716C77.8862 43.716 65.308 12.261 59.6179 9.7146C59.6179 9.7146 77.5867 18.8515 78.9343 42.8173L77.8862 43.716Z" fill="#77B62B"/>
<path d="M70.9072 104.861L70.0462 104.599C80.6617 69.9716 83.3089 47.8942 77.5065 42.3575L78.1215 41.7048C84.2768 47.5465 81.7794 69.3832 70.9072 104.861Z" fill="#444053"/>
<path d="M70.9072 104.861L70.0462 104.599C80.6617 69.9716 83.3089 47.8942 77.5065 42.3575L78.1215 41.7048C84.2768 47.5465 81.7794 69.3832 70.9072 104.861Z" fill="#77B62B" fill-opacity="0.1"/>
<path d="M41.6758 185.938L40.403 185.483C41.5314 182.311 42.7454 179.091 44.0182 175.918C55.0989 148.293 64.5326 122.594 70.581 102.866L71.688 102.331C65.6289 122.097 56.361 148.78 45.2696 176.443C44.0021 179.556 42.7935 182.76 41.6758 185.938Z" fill="#444053"/>
<path d="M41.6758 185.938L40.403 185.483C41.5314 182.311 42.7454 179.091 44.0182 175.918C55.0989 148.293 64.5326 122.594 70.581 102.866L71.688 102.331C65.6289 122.097 56.361 148.78 45.2696 176.443C44.0021 179.556 42.7935 182.76 41.6758 185.938Z" fill="#77B62B" fill-opacity="0.1"/>
<path d="M68.4579 376.53C68.2867 376.343 51.0827 356.962 39.0875 323.875C32.059 304.504 28.1474 284.14 27.4987 263.543C26.6751 237.796 32.0764 209.048 41.3282 182.932L42.3336 184.109C21.5626 242.723 29.8143 292.949 40.7613 323.196C52.6282 355.983 69.6398 375.15 69.8055 375.342L68.4579 376.53Z" fill="#444053"/>
<path d="M68.4579 376.53C68.2867 376.343 51.0827 356.962 39.0875 323.875C32.059 304.504 28.1474 284.14 27.4987 263.543C26.6751 237.796 32.0764 209.048 41.3282 182.932L42.3336 184.109C21.5626 242.723 29.8143 292.949 40.7613 323.196C52.6282 355.983 69.6398 375.15 69.8055 375.342L68.4579 376.53Z" fill="#77B62B" fill-opacity="0.1"/>
<path d="M337.305 335.382C337.305 335.382 325.182 350.184 334.808 372.561L238.012 414.554L228.722 416.501L224.444 397.778L227.305 374.149V361.236L337.305 335.382Z" fill="#D5D6DB"/>
<path d="M31.6379 325.817L165.612 301.385L343.134 329.674L232.872 369.383L31.6379 325.817Z" fill="#4B698D"/>
<path d="M31.6379 325.817L165.612 301.385L343.134 329.674L232.872 369.383L31.6379 325.817Z" fill="#4B698D"/>
<path d="M31.6379 325.811C31.6379 325.811 19.1079 349.558 33.5471 371.491L232.22 414.554C232.22 414.554 219.888 395.638 232.856 369.383L31.6379 325.811Z" fill="#4B698D"/>
<path opacity="0.1" d="M31.6379 325.811C31.6379 325.811 19.1079 349.558 33.5471 371.491L232.22 414.554C232.22 414.554 219.888 395.638 232.856 369.383L31.6379 325.811Z" fill="black"/>
<path opacity="0.1" d="M37.558 334.044C37.558 334.044 30.3972 351.419 37.558 362.664V334.044Z" fill="black"/>
<path d="M232.22 414.554L343.134 367.211C343.134 367.211 349.338 368.549 345.327 373.096C341.316 377.643 234.359 419.101 234.359 419.101L33.5471 371.491L232.22 414.554Z" fill="#4B698D"/>
<path opacity="0.1" d="M232.22 414.554L343.134 367.211C343.134 367.211 349.338 368.549 345.327 373.096C341.316 377.643 234.359 419.101 234.359 419.101L33.5471 371.491L232.22 414.554Z" fill="black"/>
<path opacity="0.1" d="M223.129 374.166C223.129 374.166 212.433 387.004 223.129 406.263V374.166Z" fill="black"/>
<path opacity="0.1" d="M274.91 373.948L226.935 389.959L227.104 390.466L275.08 374.456L274.91 373.948Z" fill="black"/>
<path opacity="0.1" d="M284.52 372.355L226.92 394.265L227.11 394.765L284.71 372.855L284.52 372.355Z" fill="black"/>
<path opacity="0.1" d="M291.74 371.743L225.637 398.809L225.84 399.304L291.943 372.238L291.74 371.743Z" fill="black"/>
<path opacity="0.1" d="M302.941 369.961L228.013 403.818L228.233 404.305L303.161 370.448L302.941 369.961Z" fill="black"/>
<path opacity="0.1" d="M311.003 369.972L228.606 405.998L228.82 406.488L311.217 370.462L311.003 369.972Z" fill="black"/>
<path opacity="0.1" d="M328.638 366.976L229.849 409.657L230.061 410.148L328.85 367.467L328.638 366.976Z" fill="black"/>
<path opacity="0.3" d="M81.4104 328.427L175.533 308.634L232.872 319.601L155.746 344.476L81.4104 328.427Z" fill="white"/>
<path d="M343.134 329.674C343.134 329.674 348.001 331.637 345.145 334.67C342.289 337.703 232.856 369.383 232.856 369.383L343.134 329.674Z" fill="#4B698D"/>
<path d="M390.404 283.93C390.404 283.93 378.286 298.727 387.912 321.109L291.116 363.103L281.827 365.061L277.548 346.337L280.452 322.714V309.784L390.404 283.93Z" fill="#D5D6DB"/>
<path d="M84.7421 274.36L218.711 249.934L396.239 278.222L285.977 317.932L84.7421 274.36Z" fill="#B90808"/>
<path d="M84.7207 274.36C84.7207 274.36 72.1853 298.106 86.6245 320.039L285.297 363.103C285.297 363.103 272.971 344.171 285.955 317.926L84.7207 274.36Z" fill="#F20D0D"/>
<path opacity="0.1" d="M84.7207 274.36C84.7207 274.36 72.1853 298.106 86.6245 320.039L285.297 363.103C285.297 363.103 272.971 344.171 285.955 317.926L223.129 304.322L84.7207 274.36Z" fill="black"/>
<path opacity="0.1" d="M90.6568 282.593C90.6568 282.593 83.5014 299.963 90.6568 311.213V282.593Z" fill="black"/>
<path d="M285.319 363.103L396.239 315.76C396.239 315.76 402.437 317.097 398.426 321.644C394.415 326.191 287.458 367.65 287.458 367.65L86.6459 320.039L285.319 363.103Z" fill="#CE0909"/>
<path opacity="0.1" d="M285.319 363.103L396.239 315.76C396.239 315.76 402.437 317.097 398.426 321.644C394.415 326.191 287.458 367.65 287.458 367.65L86.6459 320.039L285.319 363.103Z" fill="black"/>
<path opacity="0.1" d="M276.227 322.714C276.227 322.714 265.532 335.553 276.227 354.811V322.714Z" fill="black"/>
<path opacity="0.1" d="M328.013 322.503L280.038 338.513L280.207 339.021L328.183 323.01L328.013 322.503Z" fill="black"/>
<path opacity="0.1" d="M337.629 320.907L280.03 342.816L280.22 343.316L337.819 321.407L337.629 320.907Z" fill="black"/>
<path opacity="0.1" d="M346.446 320.823L280.343 347.888L280.546 348.383L346.649 321.318L346.446 320.823Z" fill="black"/>
<path opacity="0.1" d="M356.049 318.506L281.121 352.363L281.341 352.851L356.269 318.993L356.049 318.506Z" fill="black"/>
<path opacity="0.1" d="M364.104 318.51L281.707 354.537L281.921 355.027L364.318 319L364.104 318.51Z" fill="black"/>
<path opacity="0.1" d="M381.742 315.515L282.953 358.196L283.165 358.687L381.954 316.006L381.742 315.515Z" fill="black"/>
<path opacity="0.45" d="M134.515 276.976L228.637 257.183L285.977 268.149L208.85 293.024L134.515 276.976Z" fill="white"/>
<path d="M396.239 278.222C396.239 278.222 401.1 280.185 398.249 283.213C395.399 286.241 285.977 317.926 285.977 317.926L396.239 278.222Z" fill="#B90808"/>
<path d="M395.431 225.07C395.431 225.07 383.308 251.641 392.934 274.018L296.137 304.242L286.87 306.205L282.591 287.482L285.452 263.853V250.924L395.431 225.07Z" fill="#D5D6DB"/>
<path d="M89.7851 215.505L223.76 191.073L401.287 219.362L291.02 259.071L89.7851 215.505Z" fill="#4B698D"/>
<path d="M89.7851 215.499C89.7851 215.499 77.2337 239.246 91.6729 261.179L290.346 304.242C290.346 304.242 278.014 285.31 290.998 259.071L89.7851 215.499Z" fill="#4B698D"/>
<path opacity="0.1" d="M89.7851 215.499C89.7851 215.499 77.2337 239.246 91.6729 261.179L290.346 304.242C290.346 304.242 278.014 285.31 290.998 259.071L89.7851 215.499Z" fill="black"/>
<path opacity="0.1" d="M95.7052 223.732C95.7052 223.732 88.5444 241.107 95.7052 252.352V223.732Z" fill="black"/>
<path d="M290.367 304.242L401.282 268.668C401.282 268.668 407.485 270.005 403.474 274.552C399.463 279.1 292.506 308.789 292.506 308.789L91.6943 261.179L290.367 304.242Z" fill="#4B698D"/>
<path opacity="0.1" d="M290.367 304.242L401.282 268.668C401.282 268.668 407.485 270.005 403.474 274.552C399.463 279.1 292.506 308.789 292.506 308.789L91.6943 261.179L290.367 304.242Z" fill="black"/>
<path opacity="0.1" d="M281.276 263.854C281.276 263.854 270.58 276.692 281.276 295.951V263.854Z" fill="black"/>
<path opacity="0.1" d="M333.063 263.641L285.088 279.652L285.257 280.159L333.233 264.148L333.063 263.641Z" fill="black"/>
<path opacity="0.1" d="M342.675 262.048L285.076 283.958L285.266 284.458L342.866 262.548L342.675 262.048Z" fill="black"/>
<path opacity="0.1" d="M351.488 261.966L285.385 289.031L285.587 289.527L351.69 262.461L351.488 261.966Z" fill="black"/>
<path opacity="0.1" d="M361.098 259.645L286.17 293.502L286.39 293.99L361.318 260.132L361.098 259.645Z" fill="black"/>
<path opacity="0.1" d="M369.155 259.654L286.758 295.681L286.972 296.171L369.369 260.145L369.155 259.654Z" fill="black"/>
<path opacity="0.1" d="M386.792 256.662L288.003 299.343L288.215 299.834L387.004 257.153L386.792 256.662Z" fill="black"/>
<path opacity="0.3" d="M139.558 218.115L233.68 198.322L291.02 209.289L213.893 234.164L139.558 218.115Z" fill="white"/>
<path d="M401.282 219.362C401.282 219.362 406.148 221.325 403.292 224.358C400.437 227.391 291.02 259.071 291.02 259.071L401.282 219.362Z" fill="#4B698D"/>
<path d="M166.008 56.9721C166.008 56.9721 145.686 55.7471 148.061 70.0089C148.061 70.0089 147.585 72.5285 149.868 73.6733C149.868 73.6733 149.906 72.6034 151.954 72.9725C152.685 73.0981 153.428 73.134 154.168 73.0795C155.165 73.0112 156.113 72.6207 156.869 71.9668C156.869 71.9668 162.585 69.6023 164.81 60.2514C164.81 60.2514 166.457 58.2132 166.415 57.689L162.971 59.1547C162.971 59.1547 164.142 61.6315 163.222 63.6911C163.222 63.6911 163.11 59.2457 162.446 59.3473C162.313 59.3473 160.666 60.2086 160.666 60.2086C160.666 60.2086 162.682 64.5256 161.158 67.6604C161.158 67.6604 161.735 62.343 160.035 60.5189L157.617 61.9311C157.617 61.9311 159.976 66.3873 158.377 70.0249C158.377 70.0249 158.789 64.4454 157.109 62.2735L154.917 63.9853C154.917 63.9853 157.136 68.3773 155.783 71.3944C155.783 71.3944 155.607 64.9001 154.446 64.4079C154.446 64.4079 152.526 66.0984 152.237 66.7938C152.237 66.7938 153.756 70.0035 152.81 71.6672C152.81 71.6672 152.237 67.3395 151.74 67.3181C151.74 67.3181 149.831 70.1854 149.633 72.1326C149.725 70.3173 150.291 68.5578 151.275 67.0292C150.174 67.2374 149.159 67.7638 148.355 68.5431C148.355 68.5431 148.649 66.5156 151.751 66.3391C151.751 66.3391 153.328 64.1619 153.751 64.0335C153.751 64.0335 150.665 63.7713 148.799 64.6005C148.799 64.6005 150.446 62.6907 154.312 63.5306L156.451 61.7653C156.451 61.7653 152.398 61.2303 150.676 61.8241C150.676 61.8241 152.66 60.1337 157.034 61.3641L159.393 59.9572C159.393 59.9572 155.933 59.2136 153.874 59.4811C153.874 59.4811 156.045 58.3095 160.083 59.5773L161.762 58.8231C161.762 58.8231 159.232 58.3256 158.489 58.2453C157.746 58.1651 157.708 57.9618 157.708 57.9618C159.314 57.698 160.961 57.8832 162.468 58.4967C162.468 58.4967 166.078 57.1968 166.008 56.9721Z" fill="#77B62B"/>
<path opacity="0.1" d="M451.904 115.592C451.904 115.592 431.583 114.367 433.957 128.629C433.957 128.629 433.481 131.148 435.765 132.293C435.765 132.293 435.802 131.223 437.85 131.592C438.581 131.715 439.325 131.751 440.064 131.699C441.052 131.627 441.99 131.236 442.738 130.587C442.738 130.587 448.46 128.222 450.68 118.871C450.68 118.871 452.327 116.833 452.284 116.309L448.851 117.775C448.851 117.775 450.022 120.251 449.102 122.311C449.102 122.311 448.99 117.866 448.332 117.967C448.198 117.967 446.546 118.828 446.546 118.828C446.546 118.828 448.562 123.145 447.043 126.28C447.043 126.28 447.621 120.963 445.915 119.139L443.498 120.551C443.498 120.551 445.856 125.007 444.257 128.645C444.257 128.645 444.669 123.065 442.99 120.893L440.802 122.605C440.802 122.605 443.016 126.997 441.663 130.014C441.663 130.014 441.487 123.52 440.326 123.028C440.326 123.028 438.412 124.718 438.118 125.414C438.118 125.414 439.636 128.623 438.695 130.287C438.695 130.287 438.118 125.959 437.626 125.938C437.626 125.938 435.716 128.805 435.519 130.752C435.611 128.936 436.179 127.176 437.166 125.649C436.064 125.858 435.047 126.384 434.24 127.163C434.24 127.163 434.54 125.136 437.636 124.959C437.636 124.959 439.214 122.782 439.636 122.648C439.636 122.648 436.556 122.391 434.684 123.22C434.684 123.22 436.331 121.311 440.198 122.15L442.337 120.385C442.337 120.385 438.278 119.85 436.561 120.444C436.561 120.444 438.54 118.754 442.92 119.984L445.273 118.577C445.273 118.577 441.813 117.833 439.754 118.101C439.754 118.101 441.925 116.929 445.963 118.197L447.648 117.443C447.648 117.443 445.113 116.945 444.369 116.865C443.626 116.785 443.589 116.582 443.589 116.582C445.194 116.315 446.842 116.5 448.348 117.117C448.348 117.117 451.969 115.817 451.904 115.592Z" fill="#77B62B"/>
<path opacity="0.1" d="M200.234 145.079C200.234 145.079 191.378 126.714 180.105 135.765C180.105 135.765 177.672 136.578 177.789 139.13C177.789 139.13 178.725 138.643 179.394 140.612C179.644 141.308 179.974 141.972 180.378 142.591C180.925 143.43 181.73 144.069 182.672 144.41C182.672 144.41 187.523 148.251 196.769 145.63C196.769 145.63 199.352 146.074 199.774 145.763L196.822 143.479C196.822 143.479 195.218 145.71 192.983 145.908C192.983 145.908 196.812 143.645 196.4 143.121C196.314 143.014 194.796 141.981 194.796 141.981C194.796 141.981 192.009 145.849 188.533 146.047C188.533 146.047 193.453 143.96 194.213 141.58L191.806 140.157C191.806 140.157 189.063 144.394 185.111 144.768C185.111 144.768 190.18 142.409 191.255 139.884L188.699 138.814C188.699 138.814 185.945 142.891 182.651 143.185C182.651 143.185 188.234 139.863 188.095 138.606C188.095 138.606 185.683 137.76 184.934 137.841C184.934 137.841 182.891 140.724 180.966 140.724C180.966 140.724 184.458 138.108 184.244 137.685C184.244 137.685 180.811 137.418 179.003 138.22C180.632 137.411 182.445 137.042 184.26 137.151C183.54 136.291 182.585 135.661 181.512 135.337C181.512 135.337 183.426 134.609 185.089 137.225C185.089 137.225 187.763 137.541 188.079 137.846C188.079 137.846 186.801 135.032 185.169 133.807C185.169 133.807 187.64 134.305 188.769 138.087L191.362 139.114C191.362 139.114 189.87 135.305 188.496 134.101C188.496 134.101 190.934 135.005 191.999 139.451L194.373 140.82C194.373 140.82 193.341 137.434 192.1 135.77C192.1 135.77 194.181 137.097 195.042 141.238L196.523 142.34C196.523 142.34 195.721 139.884 195.453 139.199C195.186 138.515 195.32 138.376 195.32 138.376C196.337 139.646 196.981 141.174 197.181 142.789C197.181 142.789 200.042 145.239 200.234 145.079Z" fill="#77B62B"/>
<path opacity="0.1" d="M405.474 89.6468C405.474 89.6468 396.624 71.282 385.345 80.3333C385.345 80.3333 382.917 81.1465 383.029 83.6982C383.029 83.6982 383.971 83.2167 384.634 85.18C384.883 85.8787 385.215 86.545 385.623 87.1646C386.168 88.0023 386.972 88.6391 387.912 88.9781C387.912 88.9781 392.768 92.8191 402.009 90.2031C402.009 90.2031 404.592 90.6418 405.02 90.3315L402.084 88.042C402.084 88.042 400.479 90.278 398.249 90.476C398.249 90.476 402.073 88.2078 401.661 87.6835C401.576 87.5766 400.057 86.5441 400.057 86.5441C400.057 86.5441 397.276 90.4118 393.795 90.6097C393.795 90.6097 398.72 88.5234 399.479 86.1482L397.035 84.736C397.035 84.736 394.297 88.9674 390.34 89.3472C390.34 89.3472 395.41 86.9828 396.49 84.4578L393.928 83.3879C393.928 83.3879 391.174 87.4696 387.885 87.7584C387.885 87.7584 393.463 84.4364 393.324 83.1846C393.324 83.1846 390.917 82.334 390.169 82.4196C390.169 82.4196 388.126 85.2977 386.195 85.2977C386.195 85.2977 389.693 82.6818 389.479 82.2592C389.479 82.2592 386.046 81.9917 384.233 82.7941C385.861 81.984 387.674 81.6152 389.49 81.7242C388.772 80.8645 387.818 80.234 386.746 79.9107C386.746 79.9107 388.661 79.1832 390.324 81.7991C390.324 81.7991 392.998 82.1201 393.313 82.425C393.313 82.425 392.035 79.6058 390.399 78.3808C390.399 78.3808 392.869 78.8836 393.998 82.6871L396.597 83.7142C396.597 83.7142 395.105 79.9 393.73 78.6964C393.73 78.6964 396.169 79.6005 397.228 84.0459L399.608 85.4154C399.608 85.4154 398.57 82.0345 397.33 80.3654C397.33 80.3654 399.415 81.6921 400.271 85.8326L401.752 86.9346C401.752 86.9346 400.955 84.4792 400.683 83.7945C400.41 83.1097 400.549 82.976 400.549 82.976C401.563 84.2473 402.206 85.7749 402.405 87.3893C402.405 87.3893 405.309 89.818 405.474 89.6468Z" fill="#77B62B"/>
<path opacity="0.1" d="M433.759 180.487C433.759 180.487 424.908 162.117 413.614 171.168C413.614 171.168 411.186 171.981 411.298 174.533C411.298 174.533 412.239 174.051 412.903 176.015C413.15 176.713 413.48 177.379 413.887 177.999C414.432 178.837 415.235 179.474 416.175 179.813C416.175 179.813 421.031 183.659 430.278 181.038C430.278 181.038 432.855 181.482 433.283 181.166L430.331 178.882C430.331 178.882 428.727 181.118 426.491 181.316C426.491 181.316 430.315 179.048 429.903 178.524C429.818 178.417 428.299 177.384 428.299 177.384C428.299 177.384 425.518 181.252 422.037 181.455C422.037 181.455 426.962 179.363 427.721 176.988L425.31 175.565C425.31 175.565 422.571 179.802 418.614 180.177C418.614 180.177 423.684 177.812 424.764 175.287L422.202 174.217C422.202 174.217 419.448 178.294 416.159 178.588C416.159 178.588 421.743 175.266 421.603 174.009C421.603 174.009 419.192 173.158 418.443 173.244C418.443 173.244 416.4 176.122 414.469 176.122C414.469 176.122 417.967 173.506 417.753 173.083C417.753 173.083 414.32 172.816 412.507 173.618C414.138 172.809 415.952 172.44 417.769 172.548C417.05 171.687 416.095 171.056 415.02 170.735C415.02 170.735 416.935 170.002 418.598 172.623C418.598 172.623 421.272 172.939 421.587 173.244C421.587 173.244 420.309 170.43 418.678 169.199C418.678 169.199 421.149 169.702 422.277 173.506L424.871 174.533C424.871 174.533 423.379 170.719 422.005 169.52C422.005 169.52 424.443 170.419 425.502 174.87L427.882 176.234C427.882 176.234 426.844 172.853 425.604 171.184C425.604 171.184 427.689 172.511 428.55 176.657L430.032 177.726C430.032 177.726 429.23 175.271 428.962 174.586C428.695 173.902 428.828 173.768 428.828 173.768C429.845 175.038 430.488 176.566 430.684 178.181C430.684 178.181 433.593 180.647 433.759 180.487Z" fill="#77B62B"/>
<path opacity="0.1" d="M108 419.486C114.79 419.486 120.295 418.871 120.295 418.112C120.295 417.352 114.79 416.737 108 416.737C101.21 416.737 95.7052 417.352 95.7052 418.112C95.7052 418.871 101.21 419.486 108 419.486Z" fill="#4B698D"/>
<path opacity="0.1" d="M27.4024 396.12C34.1926 396.12 39.6971 395.504 39.6971 394.745C39.6971 393.986 34.1926 393.37 27.4024 393.37C20.6122 393.37 15.1077 393.986 15.1077 394.745C15.1077 395.504 20.6122 396.12 27.4024 396.12Z" fill="#4B698D"/>
<path opacity="0.1" d="M169.436 435.005C176.226 435.005 181.731 434.39 181.731 433.631C181.731 432.871 176.226 432.256 169.436 432.256C162.646 432.256 157.141 432.871 157.141 433.631C157.141 434.39 162.646 435.005 169.436 435.005Z" fill="#4B698D"/>
<path opacity="0.1" d="M484.264 401.202C491.054 401.202 496.559 400.586 496.559 399.827C496.559 399.068 491.054 398.452 484.264 398.452C477.474 398.452 471.97 399.068 471.97 399.827C471.97 400.586 477.474 401.202 484.264 401.202Z" fill="#4B698D"/>
<path opacity="0.1" d="M381.954 394.531C388.745 394.531 394.249 393.915 394.249 393.156C394.249 392.397 388.745 391.781 381.954 391.781C375.164 391.781 369.66 392.397 369.66 393.156C369.66 393.915 375.164 394.531 381.954 394.531Z" fill="#4B698D"/>
<path opacity="0.1" d="M315.769 427.067C323.8 427.067 330.31 425.948 330.31 424.569C330.31 423.189 323.8 422.07 315.769 422.07C307.739 422.07 301.229 423.189 301.229 424.569C301.229 425.948 307.739 427.067 315.769 427.067Z" fill="#4B698D"/>
<path d="M322.256 399.458C322.256 399.458 302.009 409.922 312.47 422.247C312.47 422.247 313.454 424.922 316.299 424.734C316.299 424.734 315.732 423.697 317.903 422.867C318.676 422.569 319.41 422.179 320.09 421.706C321.01 421.071 321.697 420.152 322.048 419.091C322.048 419.091 326.187 413.549 322.978 403.294C322.978 403.294 323.395 400.394 323.032 399.923L320.572 403.299C320.572 403.299 323.112 405.005 323.406 407.514C323.406 407.514 320.732 403.304 320.197 403.77C320.08 403.866 318.978 405.615 318.978 405.615C318.978 405.615 323.385 408.606 323.711 412.489C323.711 412.489 321.23 407.049 318.55 406.273L317.015 409.012C317.015 409.012 321.829 411.944 322.363 416.352C322.363 416.352 319.566 410.761 316.711 409.633L315.582 412.527C315.582 412.527 320.224 415.48 320.652 419.149C320.652 419.149 316.769 413.014 315.374 413.206C315.374 413.206 314.497 415.924 314.614 416.764C314.614 416.764 317.893 418.957 317.951 421.113C317.951 421.113 314.924 417.288 314.459 417.539C314.459 417.539 314.267 421.386 315.197 423.386C315.197 423.386 313.593 420.53 313.855 417.539C312.917 418.369 312.242 419.455 311.914 420.663C311.914 420.663 311.042 418.55 313.914 416.603C313.914 416.603 314.186 413.613 314.518 413.244C314.518 413.244 311.411 414.763 310.09 416.624C310.09 416.624 310.577 413.848 314.791 412.468L315.86 409.536C315.86 409.536 311.646 411.323 310.347 412.896C310.347 412.896 311.283 410.141 316.192 408.82L317.647 406.145C317.647 406.145 313.903 407.407 312.074 408.82C312.074 408.82 313.491 406.45 318.096 405.358L319.278 403.673C319.278 403.673 316.561 404.642 315.801 404.989C315.042 405.337 314.892 405.166 314.892 405.166C316.28 403.991 317.967 403.225 319.764 402.951C319.764 402.951 322.444 399.64 322.256 399.458Z" fill="#77B62B"/>
<path d="M382.35 201.831C378.853 192.325 359.6 191.432 351.247 193.855C345.311 195.583 332.797 197.53 326.112 198.509L325.679 198.097C326.545 197.84 326.567 197.209 326.46 196.273C326.398 195.039 326.415 193.803 326.513 192.571C330.61 193.844 334.257 190.833 334.257 190.833C339.07 188.693 337.776 179.534 338.696 177.031C339.386 175.159 340.129 164.128 340.461 158.629H340.53L340.567 156.783C340.616 155.986 340.637 155.521 340.637 155.521C340.637 155.521 341.108 142.072 342.027 139.349C342.883 136.845 343.578 124.231 343.685 122.231C343.685 122.059 343.685 121.968 343.685 121.968L343.616 120.802C343.664 119.952 343.685 119.005 343.68 118.01C343.68 113.436 343.204 107.675 343.145 106.744C343.145 106.61 343.145 106.45 343.145 106.257C343.183 104.304 342.937 94.5255 334.621 90.829C331.556 89.4596 327.872 87.828 324.305 86.2392C323.385 78.2952 321.283 70.394 321.465 62.3911C321.465 61.1875 321.572 59.9838 321.69 58.7855C321.69 59.1332 321.652 59.4863 321.647 59.8554C321.647 60.6311 321.647 61.4121 321.647 62.1878C321.962 52.1789 325.743 42.1165 325.39 32.3216C325.358 33.2791 325.289 34.242 325.198 35.2049C325.382 31.8919 325.036 28.5706 324.171 25.3672C323.85 24.2385 323.417 23.0723 322.492 22.318C321.617 21.7105 320.614 21.3132 319.561 21.1571C317.03 20.5092 314.46 20.0303 311.866 19.7235C311.471 18.5165 310.886 17.3805 310.133 16.3586C304.71 8.91214 296.678 1.915 287.18 0.310146C282.415 -0.492279 276.933 0.176408 273.693 3.58404C273.354 3.88339 273.036 4.20508 272.741 4.54695C270.997 6.6279 270.249 9.3615 268.462 11.4371C268.345 11.5762 268.211 11.7046 268.083 11.8383C264.585 14.9678 259.136 15.6204 255.248 18.4289C254.563 18.9331 253.921 19.4931 253.328 20.1033C251.761 21.6562 250.357 23.3643 249.135 25.2014C247.386 27.6621 245.59 30.2246 245.033 33.1614C243.916 39.0459 247.921 44.6254 248.665 50.5473C250.322 63.798 235.664 75.5562 238.439 88.6304C239.18 91.8423 240.816 94.7785 243.156 97.0986C237.439 102.277 232.573 107.3 232.573 107.3V107.6H231.669L231.76 108.67H231.669L232.166 114.474L231.669 122.926C231.669 122.926 231.669 123.017 231.669 123.188V123.231V123.461C231.669 123.461 231.669 123.552 231.669 123.723H231.701C231.867 126.82 232.525 137.958 233.306 140.307C234.225 143.029 234.691 156.478 234.691 156.478C234.691 156.478 235.707 175.485 236.637 177.999C237.568 180.513 236.247 189.645 241.076 191.801C242.489 192.885 244.161 193.578 245.926 193.812C245.68 195.813 245.836 197.263 246.632 197.717C246.973 197.918 247.36 198.028 247.755 198.038C247.428 198.524 247.136 199.034 246.884 199.563C244.967 199.363 243.084 198.919 241.279 198.242C236.092 196.102 218.877 191.287 213.877 194.674C208.877 198.06 196.844 201.13 202.4 214.761C207.957 228.391 210.545 228.734 210.545 228.734C212.255 229.976 213.756 231.484 214.989 233.201C216.658 235.71 232.204 241.45 236.092 241.45C237.744 241.424 239.397 241.506 241.039 241.696C241.039 241.696 236.819 245.397 237.381 247.548C237.942 249.698 236.097 266.913 236.097 266.913C236.097 266.913 240.375 271.225 242.204 265.57L242.269 265.656C242.611 266.121 244.461 268.224 247.943 265.57C249.367 264.489 250.881 263.53 252.467 262.703L269.323 260.317C271.081 260.207 272.843 260.195 274.602 260.28C277.276 260.499 279.901 258.916 281.554 257.691C285.046 259.017 288.971 260.467 290.838 260.997C294.624 262.067 312.026 266.737 316.096 265.276C316.942 264.94 317.694 264.404 318.288 263.714L322.171 263.837L320.353 264.201C320.353 264.201 323.893 264.26 328.706 264.324L328.503 264.442L334.54 264.388C343.375 264.468 353.301 264.495 354.606 264.201C356.648 263.746 367.264 264.067 370.392 264.201H371.264C371.264 264.201 382.928 261.874 378.115 250.036C374.414 240.941 363.039 238.299 357.991 237.571C359.413 237.288 360.638 237.068 361.451 236.94C364.975 236.405 371.82 233.195 372.377 232.099C372.933 231.002 378.671 227.819 380.152 226.006C381.634 224.192 385.864 211.337 382.35 201.831ZM285.741 228.434L285.169 228.621L284.784 228.75L284.046 229.477C283.458 229.082 282.827 228.664 282.169 228.236C283.329 228.306 284.522 228.375 285.741 228.434Z" fill="url(#paint0_linear)"/>
<path d="M319.839 172.029C319.839 172.029 328.021 193.427 332.674 191.288C337.327 189.148 336.065 180.054 336.952 177.561C337.84 175.068 338.824 156.163 338.824 156.163C338.824 156.163 339.273 142.789 340.161 140.082C340.985 137.595 341.653 125.05 341.765 123.076C341.765 122.905 341.765 122.814 341.765 122.814L340.883 107.3L335.888 106.054L324.305 110.334L322.7 119.497L322.075 123.076L321.807 124.601L319.839 172.029Z" fill="#BE6F72"/>
<path opacity="0.1" d="M322.534 168.445C322.534 168.445 330.342 174.838 332.695 175.399C335.048 175.961 336.492 180.947 336.492 180.947" fill="black"/>
<path d="M255.852 172.965C255.852 172.965 247.67 194.363 243.017 192.224C238.365 190.084 239.627 180.99 238.739 178.497C237.851 176.004 236.867 157.099 236.867 157.099C236.867 157.099 236.418 143.725 235.53 141.018C234.707 138.531 234.038 125.986 233.926 124.012C233.926 123.841 233.926 123.75 233.926 123.75L234.814 108.236L239.808 106.99L251.392 111.27L252.996 120.433L253.622 124.012L253.889 125.537L255.852 172.965Z" fill="#BE6F72"/>
<path d="M309.133 58.4541H290.87V86.9295H309.133V58.4541Z" fill="#3E373A"/>
<path opacity="0.1" d="M309.133 58.4541H290.87V86.9295H309.133V58.4541Z" fill="black"/>
<path d="M252.643 194.278C252.643 194.278 246.402 201.141 248.718 202.388C251.034 203.634 266.013 226.995 266.013 226.995C266.013 226.995 315.213 233.056 324.492 223.962C333.77 214.868 333.583 198.622 333.583 198.622C333.583 198.622 326.128 200.226 325.315 199.354C324.502 198.482 320.037 194.278 320.037 194.278C320.037 194.278 256.922 190.448 252.643 194.278Z" fill="#4B4B5B"/>
<path opacity="0.02" d="M252.643 194.278C252.643 194.278 246.402 201.141 248.718 202.388C251.034 203.634 266.013 226.995 266.013 226.995C266.013 226.995 315.213 233.056 324.492 223.962C333.77 214.868 333.583 198.622 333.583 198.622C333.583 198.622 326.128 200.226 325.315 199.354C324.502 198.482 320.037 194.278 320.037 194.278C320.037 194.278 256.922 190.448 252.643 194.278Z" fill="black"/>
<path d="M341.215 107.525L325.171 120.364L320.321 120.717L318.54 120.845L288.629 123.039L257.612 120.77L252.996 120.433L247.114 120.005L234.814 108.236C234.814 108.236 243.52 98.9069 251.146 92.6105C254.151 90.123 256.991 88.1116 259.061 87.3199L259.414 87.1968C260.716 86.689 261.878 85.8785 262.804 84.8324C268.826 78.6216 274.393 63.2953 274.393 63.2953C274.393 63.2953 300.956 49.5685 297.747 67.5749C294.539 85.5813 309.689 81.1305 309.689 81.1305L314.684 83.4094L316.657 84.3135L321.69 86.6191L333.043 91.8295C341.953 95.9326 341.215 107.525 341.215 107.525Z" fill="#BE6F72"/>
<path opacity="0.1" d="M287.383 77.9582C300.576 77.9582 311.272 67.2595 311.272 54.062C311.272 40.8645 300.576 30.1658 287.383 30.1658C274.19 30.1658 263.494 40.8645 263.494 54.062C263.494 67.2595 274.19 77.9582 287.383 77.9582Z" fill="black"/>
<path opacity="0.1" d="M341.252 124.547H233.926C233.926 124.376 233.926 124.285 233.926 124.285L234.814 108.771C234.814 108.771 243.52 99.4419 251.146 93.1455L318.529 90.4708L321.663 87.1648L333.016 92.3752C341.931 96.4729 341.215 108.065 341.215 108.065C341.215 108.065 342.434 121.498 341.252 124.547Z" fill="black"/>
<path d="M341.252 124.012H233.926C233.926 123.841 233.926 123.75 233.926 123.75L234.814 108.237C234.814 108.237 243.52 98.907 251.146 92.6106L318.529 89.9359L321.663 86.6299L333.016 91.8403C341.931 95.938 341.215 107.53 341.215 107.53C341.215 107.53 342.434 120.963 341.252 124.012Z" fill="#E7C7CA"/>
<path opacity="0.1" d="M270.179 80.5099C270.179 80.5099 287.11 102.09 309.662 80.0659C332.214 58.042 312.16 129.19 312.16 129.19L263.494 134.968L270.179 80.5099Z" fill="black"/>
<path d="M270.179 81.58C270.179 81.58 287.11 103.16 309.662 81.136C332.214 59.1121 312.16 130.26 312.16 130.26L263.494 136.038L270.179 81.58Z" fill="#E7C7CA"/>
<path opacity="0.1" d="M316.63 85.3673L318.422 112.698L320.342 121.792L321.807 128.746C321.807 128.746 325.551 182.241 324.481 184.916C323.412 187.591 325.016 189.731 325.241 191.154C325.465 192.577 325.016 196.15 325.192 197.755C325.369 199.36 325.192 200.071 321.096 199.499C316.999 198.926 311.288 197.931 311.288 197.931C311.288 197.931 296.849 199.001 291.859 197.22C286.87 195.439 277.42 195.433 277.42 195.433C277.42 195.433 263.157 195.792 258.526 195.257C253.895 194.722 251.392 200.965 248.365 199.178C245.338 197.391 251.927 180.102 254.066 175.105C256.205 170.109 251.216 157.452 251.216 157.452L257.633 121.84L259.061 113.768V88.3897L259.414 88.2667C260.716 87.7589 261.878 86.9484 262.804 85.9022L264.409 111.441L314.678 113.227V84.4846" fill="black"/>
<path d="M316.63 84.2975L318.422 111.628L320.342 120.722L321.807 127.677C321.807 127.677 325.551 181.172 324.481 183.846C323.412 186.521 325.016 188.661 325.241 190.084C325.465 191.507 325.016 195.08 325.192 196.685C325.369 198.29 325.192 199.001 321.096 198.429C316.999 197.857 311.288 196.862 311.288 196.862C311.288 196.862 296.849 197.932 291.859 196.15C286.87 194.369 277.42 194.363 277.42 194.363C277.42 194.363 263.157 194.722 258.526 194.187C253.895 193.652 251.392 199.895 248.365 198.108C245.338 196.321 251.927 179.032 254.066 174.035C256.205 169.039 251.216 156.382 251.216 156.382L257.633 120.77L259.061 112.698V87.3199L259.414 87.1969C260.716 86.6891 261.878 85.8786 262.804 84.8324L264.409 110.371L314.678 112.158V83.4148" fill="#E7C7CA"/>
<path opacity="0.1" d="M322.412 27.2611C322.107 26.1431 321.684 24.9822 320.807 24.2333C319.97 23.6317 319.002 23.2359 317.983 23.0778C315.544 22.4362 313.064 21.9608 310.561 21.6548C310.203 20.467 309.662 19.3424 308.956 18.3221C303.715 10.9184 295.961 3.93728 286.838 2.35918C282.062 1.53001 276.527 2.27359 273.468 6.03964C271.789 8.10989 271.067 10.8542 269.371 12.887C266.104 16.8349 260.205 17.3217 256.087 20.3763C253.889 21.9811 252.296 24.3082 250.74 26.5657C249.055 29.0104 247.322 31.5568 246.787 34.4776C245.718 40.3139 249.574 45.8774 250.285 51.7672C251.889 64.943 237.771 76.6316 240.44 89.6309C241.996 97.2112 248.996 102.55 256.237 105.257C258.788 106.214 261.703 107.167 262.895 109.617C263.43 110.687 263.521 111.922 264.024 113.003C265.714 116.608 271.27 116.748 274.254 114.121C277.238 111.494 278.179 107.247 278.532 103.283C279.966 85.9719 273.035 68.8695 273.842 51.5157C274.083 46.2679 275.559 40.3139 280.26 37.9387C286.586 34.729 294.196 40.0785 301.159 39.0567C304.454 47.0764 305.154 55.9273 303.159 64.3652C302.052 68.9819 300.138 73.4594 299.999 78.2204C299.79 85.469 303.699 92.0917 307.079 98.5004C307.804 99.6988 308.289 101.027 308.507 102.411C308.56 103.815 308.299 105.213 307.742 106.503C305.833 111.644 302.539 116.416 302.165 121.888C302.055 122.527 302.199 123.184 302.566 123.718C302.942 124.075 303.429 124.293 303.945 124.338C309.721 125.328 314.716 120.209 317.534 115.068C320.676 109.39 322.507 103.08 322.893 96.6013C323.476 85.7097 319.572 74.9947 319.812 64.0924C320.091 51.6976 325.69 39.2172 322.412 27.2611Z" fill="black"/>
<path d="M322.946 26.7262C322.641 25.6081 322.219 24.4473 321.342 23.6984C320.504 23.0968 319.537 22.701 318.518 22.5429C316.079 21.9013 313.599 21.4259 311.095 21.1199C310.738 19.9321 310.196 18.8075 309.491 17.7872C304.25 10.3835 296.496 3.40237 287.372 1.82427C282.597 0.995096 277.062 1.73867 274.003 5.50472C272.324 7.57498 271.602 10.3193 269.906 12.3521C266.639 16.3 260.74 16.7868 256.622 19.8414C254.424 21.4462 252.831 23.7733 251.274 26.0308C249.59 28.4755 247.857 31.0218 247.322 33.9427C246.253 39.779 250.109 45.3425 250.82 51.2323C252.424 64.4081 238.306 76.0967 240.974 89.096C242.531 96.6763 249.531 102.015 256.772 104.722C259.323 105.679 262.237 106.632 263.43 109.082C263.965 110.152 264.056 111.387 264.558 112.468C266.248 116.074 271.805 116.213 274.789 113.586C277.773 110.959 278.714 106.712 279.067 102.748C280.5 85.437 273.57 68.3346 274.377 50.9808C274.618 45.733 276.094 39.779 280.795 37.4038C287.121 34.1941 294.731 39.5436 301.694 38.5218C304.989 46.5415 305.688 55.3924 303.694 63.8303C302.587 68.447 300.672 72.9245 300.533 77.6855C300.325 84.9341 304.234 91.5568 307.614 97.9655C308.339 99.1639 308.824 100.492 309.042 101.876C309.095 103.28 308.834 104.678 308.277 105.968C306.368 111.109 303.074 115.881 302.699 121.354C302.59 121.992 302.734 122.649 303.1 123.183C303.477 123.54 303.963 123.758 304.48 123.804C310.256 124.793 315.251 119.674 318.069 114.533C321.211 108.855 323.042 102.545 323.428 96.0664C324.011 85.1748 320.107 74.4598 320.347 63.5575C320.625 51.1627 326.225 38.6823 322.946 26.7262Z" fill="#3E373A"/>
<path d="M311.133 263.586L332.348 264.265L329.305 248.527L313.053 250.073L311.133 263.586Z" fill="#C3C7D9"/>
<path d="M376.869 226.284C375.441 228.065 369.916 231.275 369.382 232.345C368.847 233.415 362.253 236.624 358.862 237.159C355.472 237.694 344.782 240.016 342.819 241.262C341.412 242.161 330.123 245.007 322.706 246.585C320.697 247.061 318.663 247.427 316.614 247.682C313.406 247.858 278.292 235.913 278.292 235.913L285.062 228.959L285.436 228.83C287.351 228.183 296.196 225.193 301.106 223.77C306.635 222.165 313.053 215.569 313.053 215.569C313.053 215.569 322.497 212.359 323.748 212.001C325 211.642 320.54 199.52 320.54 199.52C320.54 199.52 341.038 196.674 349.06 194.262C357.082 191.849 375.623 192.742 379.008 202.195C382.393 211.648 378.318 224.502 376.869 226.284Z" fill="#4B4B5B"/>
<path d="M283.458 256.418C283.458 256.418 279.361 260.697 275.259 260.344C271.158 259.991 256.815 261.414 256.815 261.414C254.215 262.451 251.781 263.862 249.59 265.603C246.237 268.245 244.456 266.138 244.124 265.688L244.065 265.603C242.279 271.225 238.183 266.94 238.183 266.94C238.183 266.94 239.964 249.822 239.418 247.682C238.873 245.542 242.942 241.867 242.942 241.867L247.755 240.642L259.949 237.518L277.42 243.579L283.458 256.418Z" fill="#E7C7CA"/>
<path opacity="0.1" d="M247.734 240.642L244.124 265.688L244.065 265.603C242.279 271.225 238.183 266.94 238.183 266.94C238.183 266.94 239.964 249.822 239.418 247.682C238.873 245.542 242.942 241.867 242.942 241.867L247.734 240.642Z" fill="black"/>
<path opacity="0.1" d="M272.965 169.397C272.965 169.397 282.41 172.607 290.613 169.397H272.965Z" fill="black"/>
<path opacity="0.1" d="M305.207 175.464C305.207 175.464 309.127 177.422 312.16 175.464H305.207Z" fill="black"/>
<path opacity="0.1" d="M305.207 180.107C305.207 180.107 311.801 180.99 313.053 179.208L305.207 180.107Z" fill="black"/>
<path opacity="0.1" d="M303.068 190.084C303.068 190.084 315.454 188.479 318.529 186.339L303.068 190.084Z" fill="black"/>
<path opacity="0.1" d="M265.275 186.339C265.275 186.339 272.227 190.26 277.399 190.084L265.275 186.339Z" fill="black"/>
<path opacity="0.1" d="M322.7 246.585C320.691 247.061 318.658 247.427 316.609 247.682C313.4 247.858 278.286 235.913 278.286 235.913L285.057 228.959L285.431 228.83C286.501 229.585 287.378 230.232 288.003 230.724C290.95 233.046 293.795 230.013 294.865 230.013C295.934 230.013 305.202 237.678 305.202 237.678C305.202 237.678 313.759 239.642 315.187 241.423C316.614 243.204 321.604 242.851 322.492 244.098C322.759 244.483 322.791 245.43 322.7 246.585Z" fill="black"/>
<path d="M256.815 200.248C256.815 200.248 248.162 200.745 243.172 198.643C238.183 196.541 221.604 191.689 216.791 195.096C211.978 198.504 200.389 201.516 205.737 215.071C211.085 228.627 213.583 228.98 213.583 228.98C215.237 230.221 216.682 231.72 217.861 233.42C219.465 235.918 234.439 241.621 238.183 241.621C241.926 241.621 248.52 241.621 257.788 248.04C267.056 254.46 275.436 255.176 275.436 255.176C275.436 255.176 287.201 259.991 290.864 261.061C294.528 262.131 311.267 266.763 315.192 265.341C319.117 263.918 321.609 254.995 321.609 254.995C321.609 254.995 323.39 246.97 322.497 245.724C321.604 244.477 316.614 244.831 315.192 243.049C313.769 241.268 305.207 239.304 305.207 239.304C305.207 239.304 295.961 231.633 294.891 231.633C293.822 231.633 290.977 234.661 288.03 232.345C282.16 227.996 275.993 224.063 269.575 220.576C262.804 217.008 256.815 200.248 256.815 200.248Z" fill="#4B4B5B"/>
<path opacity="0.1" d="M239.418 205.421C240.959 205.106 242.551 205.151 244.072 205.553C245.592 205.955 246.999 206.702 248.183 207.737C252.462 211.305 266.858 218.468 266.858 218.468" fill="black"/>
<path opacity="0.1" d="M346.386 205.196C346.386 205.196 327.31 208.085 323.748 212.006L346.386 205.196Z" fill="black"/>
<path d="M368.312 264.265H367.472C364.456 264.158 354.237 263.837 352.269 264.265C349.953 264.8 319.288 264.265 319.288 264.265L325.283 263.019C325.283 263.019 323.059 255.219 324.47 254.572C324.47 254.572 316.449 249.287 322.497 245.719C328.545 242.15 335.064 243.654 335.064 243.654L350.247 238.507L353.162 237.518C353.162 237.518 370.275 238.411 374.906 250.18C379.537 261.949 368.312 264.265 368.312 264.265Z" fill="#E7C7CA"/>
<path opacity="0.1" d="M368.312 264.265H367.472C372.451 260.157 383.714 247.65 350.247 238.534L353.162 237.544C353.162 237.544 370.275 238.438 374.906 250.207C379.537 261.976 368.312 264.265 368.312 264.265Z" fill="black"/>
<path d="M336.851 250.399C337.368 250.399 337.787 249.98 337.787 249.463C337.787 248.946 337.368 248.527 336.851 248.527C336.334 248.527 335.915 248.946 335.915 249.463C335.915 249.98 336.334 250.399 336.851 250.399Z" fill="#4B4B5B"/>
<path d="M331.412 251.945C331.929 251.945 332.348 251.526 332.348 251.009C332.348 250.492 331.929 250.073 331.412 250.073C330.895 250.073 330.476 250.492 330.476 251.009C330.476 251.526 330.895 251.945 331.412 251.945Z" fill="#4B4B5B"/>
<g opacity="0.1">
<path opacity="0.1" d="M304.913 53.1794C305.121 47.2954 304.074 41.4346 301.844 35.9861C294.891 37.0239 287.276 31.6584 280.944 34.8681C276.259 37.2433 274.789 43.1972 274.527 48.4451C274.463 49.8306 274.452 51.2162 274.479 52.6017C274.479 52.1095 274.479 51.612 274.527 51.1199C274.773 45.872 276.243 39.918 280.944 37.5428C287.276 34.3331 294.881 39.6826 301.844 38.6609C303.733 43.2759 304.773 48.1945 304.913 53.1794Z" fill="black"/>
<path opacity="0.1" d="M251.039 52.2005C251.131 51.0348 251.107 49.863 250.969 48.7019C250.403 43.9943 247.83 39.4954 247.365 34.9055C246.766 40.4422 250.29 45.7597 250.969 51.3766C251.039 51.6655 251.039 51.9223 251.039 52.2005Z" fill="black"/>
<path opacity="0.1" d="M279.217 100.207C278.885 104.176 277.949 108.418 274.939 111.05C271.928 113.682 266.382 113.538 264.708 109.932C264.173 108.862 264.093 107.616 263.574 106.546C262.387 104.096 259.467 103.144 256.916 102.186C249.67 99.4741 242.68 94.1621 241.124 86.5604C240.985 85.8718 240.89 85.1749 240.841 84.4741C240.709 86.0666 240.805 87.6696 241.124 89.2352C242.68 96.8154 249.681 102.149 256.916 104.861C259.467 105.819 262.387 106.771 263.574 109.221C264.109 110.291 264.2 111.527 264.708 112.607C266.393 116.213 271.949 116.352 274.939 113.725C277.928 111.099 278.859 106.851 279.217 102.882C279.38 100.793 279.435 98.6963 279.383 96.6014C279.383 97.8158 279.313 99.0141 279.217 100.207Z" fill="black"/>
<path opacity="0.1" d="M320.524 61.0218C320.524 61.7975 320.524 62.5678 320.524 63.3382C320.823 53.3881 324.47 43.3845 324.112 33.6431C323.834 42.6516 320.727 51.8635 320.524 61.0218Z" fill="black"/>
<path opacity="0.1" d="M309.047 101.271C309.179 100.637 309.22 99.9865 309.17 99.3402C308.955 97.9558 308.47 96.6271 307.742 95.4297C304.651 89.5453 301.127 83.5217 300.71 76.99C300.71 77.2682 300.672 77.5249 300.667 77.8245C300.453 85.0677 304.362 91.6958 307.742 98.1045C308.317 99.0971 308.756 100.162 309.047 101.271Z" fill="black"/>
<path opacity="0.1" d="M323.599 93.5308C323.199 100.012 321.356 106.321 318.203 111.997C315.379 117.138 310.389 122.258 304.608 121.268C304.091 121.223 303.604 121.002 303.229 120.642C303.12 120.52 303.035 120.378 302.977 120.225C302.913 120.642 302.86 121.065 302.828 121.493C302.717 122.13 302.861 122.785 303.229 123.317C303.604 123.677 304.091 123.898 304.608 123.943C310.389 124.932 315.379 119.813 318.203 114.672C321.356 108.996 323.199 102.687 323.599 96.2056C323.663 94.9538 323.668 93.7074 323.631 92.4609C323.62 92.8194 323.62 93.1724 323.599 93.5308Z" fill="black"/>
</g>
<path opacity="0.1" d="M324.47 254.572C324.47 254.572 338.006 260.253 346.931 247.682" stroke="black" stroke-miterlimit="10"/>
<path opacity="0.1" d="M327.134 264.501C327.134 264.501 338.188 257.311 352.269 264.265" stroke="black" stroke-miterlimit="10"/>
<path opacity="0.1" d="M253.141 262.869C253.141 262.869 257.783 252.395 270.179 260.382" stroke="black" stroke-miterlimit="10"/>
<path opacity="0.1" d="M238.092 107.969L247.558 99.4097C247.558 99.4097 284.26 97.0024 285.779 109.483C285.779 109.483 298.79 94.6861 326.155 97.9814L337.733 107.204L305.732 121.252L274.634 132.042L251.729 121.787L238.092 107.969Z" fill="black"/>
<path d="M238.092 108.504L247.558 99.9446C247.558 99.9446 284.26 97.5374 285.779 110.018C285.779 110.018 298.79 95.221 326.155 98.5163L337.733 107.739L305.732 121.787L274.634 132.577L251.729 122.322L238.092 108.504Z" fill="#D5D6DB"/>
<path opacity="0.1" d="M233.904 109.574L238.092 159.682L282.479 161.913L280.554 112.018L280.516 111.179L233.904 109.574Z" fill="black"/>
<path d="M233.904 108.504L238.092 158.613L282.479 160.843L280.554 110.949L280.516 110.109L233.904 108.504Z" fill="#4B698D"/>
<path opacity="0.1" d="M339.765 108.504L293.977 115.373V165.706L338.722 159.239L339.765 108.504Z" fill="black"/>
<path d="M339.765 107.434L293.977 114.303V164.636L338.722 158.169L339.765 107.434Z" fill="#4B698D"/>
<path opacity="0.3" d="M328.968 119.717L304.234 122.466L304.774 130.897L328.952 128.254L328.968 119.717Z" fill="white"/>
<path d="M240.498 185.446L243.017 192.224C243.017 192.224 246.761 195.433 250.857 193.828C254.954 192.224 258.526 191.426 260.307 189.864C262.088 188.302 264.585 180.455 264.585 180.455C264.585 180.455 267.083 171.895 269.575 169.756C272.067 167.616 278.666 138.135 269.575 141.018C260.483 143.902 253.531 170.649 253.531 170.649C253.531 170.649 251.927 172.607 249.611 172.789C247.296 172.971 242.659 172.43 241.766 174.394C240.873 176.357 237.824 181.525 240.498 185.446Z" fill="#BE6F72"/>
<path opacity="0.1" d="M293.977 115.367C291.633 115.896 289.197 115.868 286.865 115.287C284.534 114.705 282.37 113.586 280.548 112.019L282.479 161.908C282.479 161.908 287.025 166.83 293.977 165.706V115.367Z" fill="black"/>
<path d="M293.977 114.298C291.633 114.826 289.197 114.798 286.865 114.217C284.534 113.635 282.37 112.516 280.548 110.949L282.479 160.838C282.479 160.838 287.025 165.76 293.977 164.636V114.298Z" fill="#4B698D"/>
<path opacity="0.1" d="M293.977 114.298C291.633 114.826 289.197 114.798 286.865 114.217C284.534 113.635 282.37 112.516 280.548 110.949L282.479 160.838C282.479 160.838 287.025 165.76 293.977 164.636V114.298Z" fill="black"/>
<path opacity="0.1" d="M295.046 108.675C295.046 108.675 313.673 102.978 318.529 103.78L295.046 108.675Z" fill="black"/>
<path opacity="0.1" d="M274.211 106.187C274.211 106.187 256.157 101.908 253.141 103.122L274.211 106.187Z" fill="black"/>
<path opacity="0.1" d="M306.79 109.386C306.79 109.386 319.246 104.818 323.748 106.99L306.79 109.386Z" fill="black"/>
<path opacity="0.1" d="M300.517 223.989C302.447 222.539 304.502 221.263 306.657 220.175C309.865 218.629 315.748 214.617 315.748 214.617" fill="black"/>
<path opacity="0.1" d="M253.141 169.397C253.141 169.397 245.328 175.79 242.98 176.352C240.632 176.913 239.183 181.899 239.183 181.899" fill="black"/>
<path d="M335.171 184.494L332.679 191.288C332.679 191.288 328.936 194.497 324.834 192.892C320.732 191.288 317.171 190.49 315.384 188.928C313.598 187.366 311.106 179.519 311.106 179.519C311.106 179.519 308.614 170.959 306.117 168.82C303.619 166.68 297.025 137.199 306.117 140.082C315.208 142.965 322.16 169.713 322.16 169.713C322.16 169.713 323.764 171.671 326.08 171.853C328.396 172.035 333.032 171.494 333.925 173.458C334.819 175.421 337.845 180.588 335.171 184.494Z" fill="#BE6F72"/>
<path opacity="0.1" d="M330.802 171.997C330.802 171.997 335.909 175.282 335.888 179.208L330.802 171.997Z" fill="black"/>
<path d="M287.469 76.7868C300.662 76.7868 311.357 66.0881 311.357 52.8906C311.357 39.6931 300.662 28.9944 287.469 28.9944C274.275 28.9944 263.58 39.6931 263.58 52.8906C263.58 66.0881 274.275 76.7868 287.469 76.7868Z" fill="#BE6F72"/>
<path d="M272.468 46.4764C275.366 46.0216 277.907 44.3365 280.677 43.3683C286.875 41.191 293.731 42.6836 300.004 44.6468C302.411 45.4011 304.854 46.2517 307.379 46.2517C309.903 46.2517 312.582 45.2192 313.871 43.042C315.058 41.0413 314.828 38.4414 313.828 36.339C312.828 34.2367 311.154 32.5462 309.464 30.9521C303.903 25.6989 297.004 20.788 289.372 21.323C286.303 21.5423 283.367 22.639 280.543 23.8533C276.988 25.3859 273.527 27.1294 270.179 29.0744C267.607 30.5669 262.842 32.5623 261.36 35.2905C257.991 41.4371 267.227 47.3002 272.468 46.4764Z" fill="#3E373A"/>
<path opacity="0.1" d="M313.871 40.7952C312.582 42.9724 309.903 44.0049 307.379 44.0049C304.854 44.0049 302.411 43.1864 299.999 42.4321C293.726 40.4688 286.875 38.971 280.671 41.1536C277.907 42.1218 275.361 43.8283 272.463 44.2563C268.238 44.9196 261.435 41.2392 260.697 36.5583C259.868 41.9667 267.756 46.5994 272.463 45.8611C275.361 45.4064 277.907 43.7213 280.671 42.7584C286.875 40.5758 293.726 42.0737 299.999 44.037C302.411 44.7912 304.849 45.6418 307.379 45.6097C309.908 45.5776 312.582 44.5826 313.871 42.4C314.539 41.2126 314.802 39.8398 314.62 38.4895C314.536 39.3025 314.281 40.0884 313.871 40.7952Z" fill="black"/>
<path d="M507.736 330.711C507.736 330.711 510.907 334.857 506.271 341.122C501.634 347.386 497.816 352.671 499.356 356.576C499.356 356.576 506.351 344.946 512.041 344.781C517.731 344.615 513.988 337.703 507.736 330.711Z" fill="#B35688"/>
<path opacity="0.1" d="M507.736 330.711C508.012 331.112 508.23 331.55 508.383 332.011C513.934 338.538 516.897 344.631 511.554 344.781C506.581 344.925 500.618 353.821 499.19 356.063C499.236 356.244 499.291 356.422 499.356 356.598C499.356 356.598 506.351 344.968 512.041 344.802C517.731 344.636 513.988 337.703 507.736 330.711Z" fill="black"/>
<path d="M513.619 335.997C513.619 337.457 513.453 338.639 513.255 338.639C513.057 338.639 512.886 337.457 512.886 335.997C512.886 334.536 513.089 335.226 513.292 335.226C513.496 335.226 513.619 334.536 513.619 335.997Z" fill="#FFD037"/>
<path d="M515.646 337.741C514.367 338.436 513.25 338.859 513.153 338.682C513.057 338.506 514.014 337.794 515.293 337.077C516.571 336.36 516.068 336.885 516.164 337.077C516.261 337.27 516.929 337.04 515.646 337.741Z" fill="#FFD037"/>
<path d="M490.976 330.711C490.976 330.711 487.805 334.857 492.441 341.122C497.078 347.386 500.896 352.671 499.351 356.576C499.351 356.576 492.361 344.946 486.665 344.781C480.97 344.615 484.74 337.703 490.976 330.711Z" fill="#B35688"/>
<path opacity="0.1" d="M490.976 330.711C490.7 331.112 490.482 331.55 490.329 332.011C484.778 338.538 481.815 344.631 487.158 344.781C492.126 344.925 498.094 353.821 499.522 356.063C499.477 356.245 499.42 356.423 499.351 356.598C499.351 356.598 492.361 344.968 486.665 344.802C480.97 344.636 484.74 337.703 490.976 330.711Z" fill="black"/>
<path d="M485.083 335.997C485.083 337.457 485.243 338.639 485.446 338.639C485.649 338.639 485.815 337.457 485.815 335.997C485.815 334.536 485.607 335.226 485.409 335.226C485.211 335.226 485.083 334.536 485.083 335.997Z" fill="#FFD037"/>
<path d="M483.061 337.741C484.339 338.436 485.457 338.859 485.553 338.682C485.649 338.506 484.692 337.794 483.414 337.077C482.136 336.36 482.638 336.885 482.542 337.077C482.446 337.27 481.777 337.04 483.061 337.741Z" fill="#FFD037"/>
<path opacity="0.1" d="M499.356 388.31C517.668 388.31 532.513 386.032 532.513 383.222C532.513 380.412 517.668 378.135 499.356 378.135C481.044 378.135 466.199 380.412 466.199 383.222C466.199 386.032 481.044 388.31 499.356 388.31Z" fill="#4B698D"/>
<path d="M516.421 350.986L516.26 352.281L516.036 354.11L515.945 354.875L515.72 356.705L515.624 357.47L515.405 359.294L512.865 380.103C512.64 381.96 509.608 383.409 505.944 383.409H492.762C489.099 383.409 486.072 381.96 485.842 380.103L483.302 359.294L483.077 357.47L482.986 356.705L482.762 354.875L482.665 354.11L482.446 352.281L482.286 350.986C482.163 349.916 483.799 349.05 485.874 349.05H512.838C514.908 349.05 516.549 349.932 516.421 350.986Z" fill="#65617D"/>
<path d="M516.261 352.281L516.041 354.11H482.671L482.446 352.281H516.261Z" fill="#9D9CB5"/>
<path d="M515.945 354.875L515.726 356.705H482.986L482.762 354.875H515.945Z" fill="#9D9CB5"/>
<path d="M515.63 357.47L515.405 359.299H483.302L483.082 357.47H515.63Z" fill="#9D9CB5"/>
</g>
<defs>
<linearGradient id="paint0_linear" x1="292.335" y1="268.502" x2="292.335" y2="-0.000126751" gradientUnits="userSpaceOnUse">
<stop stop-color="#808080" stop-opacity="0.25"/>
<stop offset="0.54" stop-color="#808080" stop-opacity="0.12"/>
<stop offset="1" stop-color="#808080" stop-opacity="0.1"/>
</linearGradient>
<clipPath id="clip0">
<rect width="547" height="435" fill="white"/>
</clipPath>
</defs>
</svg>
