<svg width="547" height="410" viewBox="0 0 547 410" fill="none" xmlns="http://www.w3.org/2000/svg">
<g clip-path="url(#clip0)">
<path d="M4.92792 0C3.62143 0.00153761 2.36888 0.521532 1.44505 1.44591C0.521219 2.3703 0.00153504 3.62359 0 4.93086V405.069C0.00153504 406.376 0.521219 407.63 1.44505 408.554C2.36888 409.478 3.62143 409.998 4.92792 410H542.072C543.379 409.998 544.631 409.478 545.555 408.554C546.479 407.63 546.998 406.376 547 405.069V4.93086C546.998 3.62359 546.479 2.3703 545.555 1.44591C544.631 0.521532 543.379 0.00153761 542.072 0H4.92792Z" fill="#E6E6E6"/>
<path d="M15.7693 15.7786V394.222H531.231V15.7786H15.7693Z" fill="white"/>
<path d="M393.709 36.2422C393.423 36.2425 393.15 36.3562 392.948 36.5582C392.746 36.7603 392.632 37.0342 392.632 37.32V124.784C392.632 125.069 392.746 125.343 392.948 125.545C393.15 125.748 393.423 125.861 393.709 125.862H511.12C511.406 125.861 511.679 125.748 511.881 125.545C512.083 125.343 512.197 125.069 512.197 124.784V37.32C512.197 37.0342 512.083 36.7603 511.881 36.5582C511.679 36.3562 511.406 36.2425 511.12 36.2422H393.709Z" fill="#E6E6E6"/>
<path d="M396.079 39.6912V122.413H508.75V39.6912H396.079Z" fill="white"/>
<path d="M393.709 159.465C393.423 159.466 393.15 159.579 392.948 159.781C392.746 159.983 392.632 160.257 392.632 160.543V248.007C392.632 248.293 392.746 248.567 392.948 248.769C393.15 248.971 393.423 249.084 393.709 249.085H511.12C511.406 249.084 511.679 248.971 511.881 248.769C512.083 248.567 512.197 248.293 512.197 248.007V160.543C512.197 160.257 512.083 159.983 511.881 159.781C511.679 159.579 511.406 159.466 511.12 159.465H393.709Z" fill="#E6E6E6"/>
<path d="M396.079 162.915V245.636H508.75V162.915H396.079Z" fill="white"/>
<path d="M393.709 282.689C393.423 282.689 393.15 282.803 392.948 283.005C392.746 283.207 392.632 283.481 392.632 283.767V371.23C392.632 371.516 392.746 371.79 392.948 371.992C393.15 372.194 393.423 372.308 393.709 372.308H511.12C511.406 372.308 511.679 372.194 511.881 371.992C512.083 371.79 512.197 371.516 512.197 371.23V283.767C512.197 283.481 512.083 283.207 511.881 283.005C511.679 282.803 511.406 282.689 511.12 282.689H393.709Z" fill="#E6E6E6"/>
<path d="M396.079 286.138V368.859H508.75V286.138H396.079Z" fill="white"/>
<path d="M487.61 106.465L465.16 90.7504H465.153L465.151 90.753C464.388 88.3492 463.861 85.8762 463.58 83.3696C465.688 81.4488 467.184 78.9498 467.881 76.184C467.972 76.2376 468.059 76.2966 468.142 76.3606C470.108 77.9348 473.845 61.2086 467.552 58.0601C467.552 58.0601 462.832 47.8276 453.785 50.189C444.739 52.5503 439.626 56.0924 439.232 59.6344C438.839 63.1764 439.429 68.4894 439.429 68.4894C439.429 68.4894 439.974 64.472 442.835 63.0519C441.42 64.6663 440.38 66.5744 439.791 68.6389C439.201 70.7035 439.077 72.8731 439.426 74.9917C439.775 77.1102 440.589 79.125 441.809 80.891C443.03 82.6569 444.627 84.1302 446.485 85.2046C445.802 87.5505 444.89 90.5911 444.124 92.8234H444.123L437.263 96.2374L422.318 105.682C422.318 105.682 416.422 113.155 414.451 121.817C414.299 122.498 414.14 123.18 413.973 123.861H493.695C491.036 115.823 487.61 106.465 487.61 106.465Z" fill="#E6E6E6"/>
<path d="M482.676 359.508C484.211 358.527 485.836 357.697 487.53 357.029L470.825 337.182L459.785 334.355C457.847 333.267 456.318 331.574 455.431 329.535L461.342 329.477L463.595 316.713C464.964 313.002 464.407 309.747 461.342 307.065C461.893 303.629 460.335 301.1 456.206 299.672C452.099 296.106 446.028 295.25 442.384 300.962C440.913 300.874 439.465 301.359 438.342 302.313C437.22 303.268 436.508 304.62 436.357 306.087C433.011 309.979 436.727 324.266 437.828 329.709L443.703 329.651C443.364 331.665 442.377 333.513 440.892 334.914L440.813 334.834L429.07 340.582L412.365 359.906C414.013 360.553 415.597 361.354 417.095 362.298L415.371 368.858H427.324L430.504 364.234H430.664C430.664 364.154 430.671 364.074 430.671 363.994L432.902 360.747C432.953 363.371 432.88 366.075 432.699 368.858H469.876C469.818 366.546 469.804 364.248 469.804 361.965L473.962 368.003C474.273 367.546 474.606 367.118 474.94 366.684L475.758 368.858H485.277L482.995 360.174C482.931 359.935 482.823 359.708 482.676 359.508Z" fill="#E6E6E6"/>
<path d="M474.367 221.157L458.582 214.699C458.206 213.205 457.887 211.799 457.684 210.56C459.305 209.638 460.725 208.4 461.859 206.92C462.994 205.44 463.821 203.747 464.291 201.941L465.957 200.151C466.842 199.227 467.52 198.124 467.944 196.916C468.369 195.709 468.531 194.424 468.42 193.149C468.131 190.698 466.889 188.459 464.964 186.915C465.609 182.835 463.762 179.834 458.865 178.138C453.997 173.912 446.789 172.89 442.472 179.667C440.725 179.563 439.006 180.137 437.673 181.27C436.339 182.403 435.494 184.007 435.314 185.748C431.765 189.88 435.423 198.121 437.169 204.435C437.302 204.902 437.57 205.32 437.94 205.634C438.31 205.949 438.765 206.147 439.248 206.203C440.408 207.92 441.935 209.359 443.717 210.415C443.763 212.238 443.548 214.059 443.08 215.822L443.094 215.271L431.323 220.57L431.316 220.425L430.178 221.085L428.374 221.896C428.389 221.969 428.403 222.034 428.418 222.107L428.251 222.201C425.716 223.67 423.773 225.981 422.76 228.732L416.711 246.447H470.868C471.42 244.6 472.097 242.793 472.897 241.039L472.911 240.844L477.721 246.447H492.413L474.367 221.157Z" fill="#E6E6E6"/>
<path d="M206.388 368.056C223.901 368.056 238.098 353.851 238.098 336.327C238.098 318.804 223.901 304.598 206.388 304.598C188.875 304.598 174.677 318.804 174.677 336.327C174.677 353.851 188.875 368.056 206.388 368.056Z" fill="#E6E6E6"/>
<path d="M206.388 360.653C219.814 360.653 230.699 349.762 230.699 336.327C230.699 322.892 219.814 312.001 206.388 312.001C192.961 312.001 182.077 322.892 182.077 336.327C182.077 349.762 192.961 360.653 206.388 360.653Z" fill="white"/>
<path d="M218.567 349.613C218.421 349.613 218.277 349.585 218.143 349.529C218.009 349.473 217.887 349.392 217.784 349.288L193.423 324.913C193.224 324.703 193.115 324.424 193.118 324.135C193.122 323.846 193.238 323.57 193.443 323.366C193.647 323.162 193.923 323.045 194.211 323.042C194.5 323.038 194.779 323.147 194.988 323.346L219.35 347.722C219.504 347.877 219.61 348.074 219.652 348.289C219.695 348.504 219.673 348.727 219.589 348.929C219.506 349.132 219.364 349.305 219.182 349.426C219 349.548 218.786 349.613 218.567 349.613H218.567Z" fill="#4B698D"/>
<path d="M205.833 340.462L202.248 336.875C202.228 336.855 202.201 336.842 202.173 336.837C202.144 336.832 202.115 336.837 202.089 336.85C202.063 336.863 202.042 336.883 202.028 336.909C202.015 336.935 202.01 336.964 202.014 336.992C202.158 337.923 202.595 338.783 203.26 339.449C203.926 340.115 204.786 340.552 205.716 340.697C205.744 340.7 205.773 340.695 205.799 340.682C205.825 340.668 205.845 340.647 205.858 340.621C205.871 340.595 205.876 340.566 205.871 340.537C205.866 340.509 205.853 340.482 205.833 340.462L205.833 340.462Z" fill="#4B698D"/>
<path d="M206.94 332.173L210.53 335.763C210.55 335.784 210.577 335.798 210.605 335.802C210.634 335.807 210.663 335.803 210.69 335.79C210.716 335.777 210.737 335.756 210.75 335.73C210.764 335.704 210.769 335.675 210.765 335.646C210.621 334.714 210.184 333.853 209.517 333.186C208.851 332.519 207.99 332.082 207.059 331.938C207.03 331.933 207.001 331.938 206.975 331.952C206.949 331.965 206.928 331.986 206.914 332.012C206.901 332.038 206.896 332.068 206.901 332.097C206.906 332.125 206.919 332.152 206.94 332.173Z" fill="#4B698D"/>
<path d="M222.65 337.519C222.879 337.16 223 336.741 222.999 336.315C222.998 335.888 222.874 335.471 222.643 335.112C220.867 332.335 218.526 329.963 215.773 328.151C212.982 326.294 209.715 325.282 206.364 325.237C204.674 325.24 202.996 325.515 201.393 326.054C201.349 326.069 201.308 326.095 201.277 326.13C201.245 326.165 201.222 326.207 201.211 326.253C201.201 326.299 201.202 326.347 201.215 326.393C201.228 326.438 201.252 326.48 201.286 326.513L204.555 329.784C204.589 329.818 204.631 329.843 204.677 329.856C204.724 329.868 204.773 329.869 204.819 329.857C205.927 329.587 207.087 329.606 208.185 329.914C209.283 330.222 210.284 330.808 211.09 331.615C211.897 332.422 212.482 333.423 212.79 334.522C213.098 335.621 213.117 336.781 212.847 337.89C212.836 337.936 212.836 337.985 212.849 338.031C212.862 338.078 212.886 338.12 212.92 338.154L217.623 342.863C217.672 342.912 217.737 342.941 217.806 342.944C217.876 342.947 217.943 342.924 217.997 342.879C219.807 341.335 221.375 339.529 222.65 337.519Z" fill="#4B698D"/>
<path d="M206.386 342.965C205.38 342.965 204.388 342.737 203.483 342.297C202.578 341.857 201.785 341.218 201.163 340.427C200.542 339.636 200.108 338.714 199.894 337.73C199.68 336.747 199.692 335.728 199.929 334.75C199.941 334.703 199.94 334.655 199.928 334.608C199.915 334.562 199.89 334.52 199.856 334.486L195.231 329.855C195.181 329.806 195.116 329.777 195.046 329.774C194.977 329.771 194.909 329.795 194.856 329.839C193.079 331.381 191.505 333.143 190.173 335.083C189.922 335.443 189.784 335.869 189.777 336.307C189.769 336.745 189.891 337.176 190.129 337.544C191.876 340.324 194.194 342.7 196.93 344.514C199.725 346.379 203.005 347.381 206.364 347.397C208.071 347.392 209.767 347.123 211.391 346.597C211.437 346.583 211.477 346.557 211.51 346.522C211.542 346.487 211.565 346.445 211.576 346.399C211.587 346.352 211.586 346.304 211.574 346.258C211.561 346.213 211.536 346.171 211.503 346.137L208.217 342.851C208.184 342.817 208.141 342.792 208.095 342.78C208.049 342.767 208 342.766 207.954 342.778C207.441 342.902 206.914 342.965 206.386 342.965Z" fill="#4B698D"/>
<path d="M86.0753 368.056C103.588 368.056 117.786 353.851 117.786 336.327C117.786 318.804 103.588 304.598 86.0753 304.598C68.5622 304.598 54.3651 318.804 54.3651 336.327C54.3651 353.851 68.5622 368.056 86.0753 368.056Z" fill="#E6E6E6"/>
<path d="M86.0753 360.653C99.502 360.653 110.386 349.762 110.386 336.327C110.386 322.892 99.502 312.001 86.0753 312.001C72.6486 312.001 61.7641 322.892 61.7641 336.327C61.7641 349.762 72.6486 360.653 86.0753 360.653Z" fill="white"/>
<path d="M95.4148 351.838C94.0638 351.838 92.1662 351.35 89.3245 349.761C85.7926 347.872 82.5675 345.459 79.7592 342.602C76.8526 339.832 74.4253 336.599 72.5761 333.034C70.0265 328.394 70.4611 325.962 70.9469 324.923C71.5078 323.786 72.3898 322.839 73.4834 322.2C74.1104 321.789 74.7739 321.436 75.4656 321.147C75.5348 321.117 75.5991 321.089 75.6566 321.063C75.8854 320.934 76.1393 320.854 76.4012 320.83C76.6632 320.807 76.9272 320.839 77.1757 320.925C77.728 321.191 78.2196 321.568 78.6194 322.033C80.0588 323.649 81.2731 325.453 82.2293 327.395C82.6223 328.066 82.864 328.816 82.9373 329.591C82.8799 330.358 82.5695 331.084 82.0549 331.655C81.9642 331.779 81.8742 331.897 81.787 332.012C81.2604 332.705 81.1448 332.905 81.2209 333.262C81.3752 333.98 82.5262 336.118 84.4176 338.007C86.3091 339.895 88.384 340.974 89.1044 341.128C89.4767 341.207 89.6809 341.087 90.3951 340.541C90.4976 340.463 90.6028 340.382 90.7128 340.301C91.2852 339.761 92.0232 339.43 92.807 339.363H92.8112C93.5968 339.444 94.3523 339.709 95.0161 340.137C96.2619 340.766 99.107 342.463 100.355 343.723C100.82 344.122 101.198 344.612 101.466 345.164C101.551 345.413 101.583 345.678 101.559 345.941C101.536 346.203 101.456 346.458 101.327 346.688C101.302 346.745 101.273 346.808 101.243 346.878C100.952 347.569 100.598 348.231 100.185 348.857C99.5441 349.95 98.5965 350.831 97.4598 351.39C96.8209 351.693 96.1216 351.846 95.4148 351.838Z" fill="#77B62B"/>
<path d="M327.633 368.056C345.146 368.056 359.343 353.851 359.343 336.327C359.343 318.804 345.146 304.598 327.633 304.598C310.12 304.598 295.922 318.804 295.922 336.327C295.922 353.851 310.12 368.056 327.633 368.056Z" fill="#E6E6E6"/>
<path d="M327.633 360.653C341.059 360.653 351.944 349.762 351.944 336.327C351.944 322.892 341.059 312.001 327.633 312.001C314.206 312.001 303.322 322.892 303.322 336.327C303.322 349.762 314.206 360.653 327.633 360.653Z" fill="white"/>
<path d="M332.062 350.731H323.203C322.91 350.731 322.628 350.614 322.42 350.407C322.213 350.199 322.096 349.917 322.096 349.623C322.096 349.329 322.213 349.047 322.42 348.84C322.628 348.632 322.91 348.515 323.203 348.515H332.062C332.356 348.515 332.637 348.632 332.845 348.84C333.053 349.047 333.169 349.329 333.169 349.623C333.169 349.917 333.053 350.199 332.845 350.407C332.637 350.614 332.356 350.731 332.062 350.731Z" fill="#F20D0D"/>
<path d="M327.633 345.191C324.991 345.188 322.457 344.137 320.589 342.267C318.721 340.398 317.67 337.863 317.667 335.219V333.003C317.667 332.709 317.783 332.428 317.991 332.22C318.199 332.012 318.48 331.895 318.774 331.895C319.068 331.895 319.349 332.012 319.557 332.22C319.765 332.428 319.881 332.709 319.881 333.003V335.219C319.883 337.275 320.701 339.246 322.154 340.699C323.608 342.152 325.578 342.968 327.633 342.968C329.687 342.968 331.658 342.152 333.111 340.699C334.565 339.246 335.382 337.275 335.384 335.219V333.003C335.384 332.709 335.501 332.428 335.708 332.22C335.916 332.012 336.198 331.895 336.491 331.895C336.785 331.895 337.067 332.012 337.274 332.22C337.482 332.428 337.599 332.709 337.599 333.003V335.219C337.596 337.863 336.545 340.398 334.676 342.267C332.808 344.137 330.275 345.188 327.633 345.191Z" fill="#F20D0D"/>
<path d="M327.633 350.731C327.487 350.731 327.343 350.702 327.209 350.647C327.075 350.591 326.953 350.509 326.85 350.407C326.747 350.304 326.665 350.181 326.61 350.047C326.554 349.913 326.525 349.769 326.525 349.623V344.083C326.525 343.789 326.642 343.507 326.85 343.3C327.057 343.092 327.339 342.975 327.633 342.975C327.926 342.975 328.208 343.092 328.416 343.3C328.623 343.507 328.74 343.789 328.74 344.083V349.623C328.74 349.769 328.711 349.913 328.656 350.047C328.6 350.181 328.519 350.304 328.416 350.407C328.313 350.509 328.191 350.591 328.056 350.647C327.922 350.702 327.778 350.731 327.633 350.731Z" fill="#F20D0D"/>
<path d="M327.633 340.759C326.902 340.757 326.179 340.609 325.506 340.322C324.834 340.035 324.226 339.617 323.719 339.09C322.68 338.042 322.097 336.626 322.096 335.15V327.463C322.093 326.739 322.233 326.02 322.508 325.35C322.782 324.679 323.186 324.069 323.696 323.555C324.206 323.04 324.813 322.632 325.481 322.352C326.149 322.072 326.865 321.926 327.59 321.923C327.604 321.923 327.618 321.923 327.633 321.923C328.362 321.916 329.085 322.053 329.761 322.329C330.436 322.605 331.049 323.012 331.565 323.528C332.081 324.044 332.488 324.658 332.764 325.334C333.039 326.01 333.177 326.734 333.169 327.463V335.15C333.177 336.628 332.598 338.048 331.56 339.1C330.522 340.152 329.11 340.748 327.633 340.759Z" fill="#F20D0D"/>
<path d="M44.5313 36.415C43.7639 36.4159 43.0282 36.7214 42.4856 37.2643C41.9429 37.8073 41.6377 38.5434 41.6368 39.3113V274.343C41.6377 275.11 41.9429 275.847 42.4856 276.389C43.0282 276.932 43.7639 277.238 44.5313 277.239H360.036C360.804 277.238 361.539 276.932 362.082 276.389C362.625 275.847 362.93 275.11 362.931 274.343V39.3113C362.93 38.5434 362.625 37.8073 362.082 37.2643C361.539 36.7214 360.804 36.4159 360.036 36.415H44.5313Z" fill="#E6E6E6"/>
<path d="M50.8993 45.6831V267.971H353.668V45.6831H50.8993Z" fill="white"/>
<path d="M259.959 267.971L260.504 265.834L255.771 246.217L255.31 244.291L254.962 242.852L255.516 242.665L283.478 233.343L283.836 238.52L285.863 267.971H259.959Z" fill="#FFB9B9"/>
<path d="M148.796 246.217L144.064 265.834L144.609 267.971H118.705L120.732 238.52L121.09 233.343L149.606 242.852L148.796 246.217Z" fill="#FFB9B9"/>
<path d="M225.652 167.555L180.5 172.311C185.243 160.094 184.366 146.074 180.5 131.096H212.978C215.111 143.878 219.397 156.206 225.652 167.555Z" fill="#FFB9B9"/>
<path d="M197.135 150.118C210.697 150.118 221.691 139.118 221.691 125.548C221.691 111.978 210.697 100.977 197.135 100.977C183.573 100.977 172.579 111.978 172.579 125.548C172.579 139.118 183.573 150.118 197.135 150.118Z" fill="#FFB9B9"/>
<path d="M267.636 177.068C262.452 199.991 258.187 221.785 255.516 242.665C255.443 243.211 255.374 243.751 255.31 244.291C255.222 244.998 255.133 245.706 255.055 246.413C254.181 253.707 253.521 260.893 253.076 267.971H154.25C154.353 261.296 154.132 254.468 153.636 247.548C151.933 223.809 146.931 198.984 140.102 175.481L140.152 175.462L183.355 160.53L183.669 160.422C196.123 166.173 208.523 166.439 220.825 157.71C220.864 157.686 220.898 157.656 220.938 157.632L261.211 174.396L261.225 174.401L267.636 177.068Z" fill="#4B698D"/>
<path d="M296.943 234.925L247.831 248.399L259.713 173.896L267.292 176.424C270.071 177.351 272.575 178.958 274.575 181.101C276.575 183.243 278.008 185.852 278.743 188.689L296.943 234.925Z" fill="#4B698D"/>
<path d="M107.625 234.925L156.737 248.399L144.855 173.896L137.276 176.424C134.496 177.351 131.993 178.958 129.993 181.101C127.993 183.243 126.56 185.852 125.825 188.689L107.625 234.925Z" fill="#4B698D"/>
<path d="M195.557 83.9841C191.38 84.1761 187.311 85.3748 183.696 87.4783C182.865 87.9623 183.249 89.7079 182.481 90.2772C181.513 90.9942 179.413 90.5588 178.556 91.3986C175.79 94.1001 173.661 97.3842 172.323 101.012C170.984 104.64 170.471 108.521 170.819 112.372L172.183 125.944L175.401 122.422C181.171 116.021 189.181 112.086 197.772 111.433C198.137 111.408 198.503 111.389 198.869 111.375L196.393 107.04L200.696 111.345C202.659 111.367 204.618 111.526 206.558 111.822L203.266 106.057L209.583 112.378L209.583 112.379C212.167 112.947 214.581 114.115 216.631 115.788C218.681 117.461 220.309 119.592 221.385 122.01L222.087 123.566L222.873 110.619C222.95 107.04 222.292 103.484 220.937 100.171C219.583 96.8581 217.562 93.8594 215 91.3613C212.438 88.8632 209.39 86.9192 206.045 85.65C202.7 84.3809 199.13 83.8139 195.557 83.9841Z" fill="#2F2E41"/>
<path d="M172.83 129.634C173.915 129.634 174.794 127.545 174.794 124.968C174.794 122.391 173.915 120.302 172.83 120.302C171.746 120.302 170.867 122.391 170.867 124.968C170.867 127.545 171.746 129.634 172.83 129.634Z" fill="#FFB9B9"/>
<path d="M221.92 128.16C223.004 128.16 223.883 126.071 223.883 123.494C223.883 120.917 223.004 118.828 221.92 118.828C220.835 118.828 219.956 120.917 219.956 123.494C219.956 126.071 220.835 128.16 221.92 128.16Z" fill="#FFB9B9"/>
</g>
<defs>
<clipPath id="clip0">
<rect width="547" height="410" fill="white"/>
</clipPath>
</defs>
</svg>
