<svg width="547" height="506" viewBox="0 0 547 506" fill="none" xmlns="http://www.w3.org/2000/svg">
<g clip-path="url(#clip0)">
<g opacity="0.5">
<path opacity="0.5" d="M391.469 84.5867L100.143 84.5867L100.143 476.046H391.469V84.5867Z" fill="url(#paint0_linear)"/>
</g>
<path d="M386.161 89.9005L103.936 89.9005L103.936 467.705H386.161V89.9005Z" fill="#F2F2F2"/>
<path d="M223.049 105.829H125.94V108.863H223.049V105.829Z" fill="#E0E0E0"/>
<path opacity="0.7" d="M223.049 119.484H125.94V122.518H223.049V119.484Z" fill="#4B698D"/>
<path d="M334.573 105.829H237.464V108.863H334.573V105.829Z" fill="#E0E0E0"/>
<path d="M349.742 192.319H252.633V195.353H349.742V192.319Z" fill="#E0E0E0"/>
<path d="M352.022 200.66H254.914V203.694H352.022V200.66Z" fill="#E0E0E0"/>
<path d="M356.576 209.008H259.468V212.042H356.576V209.008Z" fill="#E0E0E0"/>
<path d="M349.742 326.595H252.633V329.629H349.742V326.595Z" fill="#E0E0E0"/>
<path d="M352.022 334.943H254.914V337.977H352.022V334.943Z" fill="#E0E0E0"/>
<path d="M356.576 343.284H259.468V346.318H356.576V343.284Z" fill="#E0E0E0"/>
<g opacity="0.5">
<path opacity="0.5" d="M229.876 161.209H126.7V265.901H229.876V161.209Z" fill="url(#paint1_linear)"/>
</g>
<path d="M228.902 163.489H127.35V263.628H228.902V163.489Z" fill="#F5F5F5"/>
<g opacity="0.5">
<path opacity="0.5" d="M225.647 169.557H130.929V234.798H225.647V169.557Z" fill="url(#paint2_linear)"/>
</g>
<path d="M224.991 170.317H131.579V233.284H224.991V170.317Z" fill="white"/>
<path opacity="0.4" d="M123.66 231.01L147.183 194.593L157.045 210.521L178.288 188.525L196.498 210.521L212.427 177.904L253.394 243.145L120.626 238.591L123.66 231.01Z" fill="#4B698D"/>
<path opacity="0.4" d="M141.869 186.245C145.64 186.245 148.697 183.189 148.697 179.418C148.697 175.647 145.64 172.59 141.869 172.59C138.098 172.59 135.041 175.647 135.041 179.418C135.041 183.189 138.098 186.245 141.869 186.245Z" fill="#4B698D"/>
<g opacity="0.5">
<path opacity="0.5" d="M229.876 295.491H126.7V400.184H229.876V295.491Z" fill="url(#paint3_linear)"/>
</g>
<path d="M228.902 297.765H127.35V397.904H228.902V297.765Z" fill="#F5F5F5"/>
<g opacity="0.5">
<path opacity="0.5" d="M225.647 303.839H130.929V369.08H225.647V303.839Z" fill="url(#paint4_linear)"/>
</g>
<path d="M224.991 304.593H131.579V367.56H224.991V304.593Z" fill="white"/>
<path opacity="0.4" d="M123.66 365.286L147.183 328.869L157.045 344.804L178.288 322.801L196.498 344.804L212.427 312.18L253.394 377.421L120.626 372.874L123.66 365.286Z" fill="#BDBDBD"/>
<path opacity="0.4" d="M141.869 320.528C145.64 320.528 148.697 317.471 148.697 313.7C148.697 309.93 145.64 306.873 141.869 306.873C138.098 306.873 135.041 309.93 135.041 313.7C135.041 317.471 138.098 320.528 141.869 320.528Z" fill="#BDBDBD"/>
<g opacity="0.5">
<path opacity="0.5" d="M219.218 65.2455L142.912 449.197L428.651 505.979L504.957 122.028L219.218 65.2455Z" fill="url(#paint5_linear)"/>
</g>
<path d="M221.902 71.1949L148.258 441.753L425.069 496.762L498.713 126.204L221.902 71.1949Z" fill="white"/>
<path d="M435.076 131.335L238.627 92.2959L238.035 95.2714L434.485 134.311L435.076 131.335Z" fill="#E0E0E0"/>
<path d="M379.179 412.607L182.729 373.568L182.138 376.543L378.588 415.582L379.179 412.607Z" fill="#E0E0E0"/>
<path d="M331.124 420.842L179.321 390.675L178.73 393.651L330.533 423.817L331.124 420.842Z" fill="#E0E0E0"/>
<path opacity="0.7" d="M232.472 419.033L175.922 407.795L175.33 410.77L231.88 422.008L232.472 419.033Z" fill="#4B698D"/>
<path opacity="0.7" d="M333.441 128.932L235.22 109.413L234.628 112.389L332.85 131.908L333.441 128.932Z" fill="#4B698D"/>
<path d="M408.925 161.719L231.826 126.525L231.235 129.501L408.333 164.694L408.925 161.719Z" fill="#E0E0E0"/>
<path opacity="0.7" d="M271.578 152.219L228.422 143.643L227.83 146.618L270.987 155.195L271.578 152.219Z" fill="#3AD29F"/>
<path d="M421.474 199.796L225.024 160.757L224.432 163.733L420.882 202.772L421.474 199.796Z" fill="#E0E0E0"/>
<g opacity="0.5">
<path opacity="0.5" d="M242.332 233.047L222.221 334.24L398.574 369.285L418.685 268.092L242.332 233.047Z" fill="url(#paint6_linear)"/>
</g>
<path d="M417.454 268.614L243.331 234.012L223.663 332.975L397.786 367.577L417.454 268.614Z" fill="white"/>
<path d="M418.072 216.916L221.622 177.877L221.031 180.852L417.481 219.891L418.072 216.916Z" fill="#E0E0E0"/>
<path d="M280.486 255.318L258.905 251.029L244.56 323.206L266.142 327.495L280.486 255.318Z" fill="#F20D0D"/>
<path d="M314.447 286.819L292.865 282.531L283.253 330.897L304.834 335.186L314.447 286.819Z" fill="#3AD29F"/>
<path d="M348.71 316.833L327.128 312.544L321.953 338.585L343.535 342.874L348.71 316.833Z" fill="#FAB442"/>
<path d="M392.728 297.734L371.147 293.446L360.647 346.279L382.228 350.567L392.728 297.734Z" fill="#77B62B"/>
<path d="M455.693 227.373C446.332 217.637 435.118 209.872 422.712 204.535C410.306 199.198 396.957 196.396 383.451 196.294C369.946 196.192 356.557 198.793 344.071 203.943C331.586 209.093 320.257 216.688 310.751 226.281C272.422 264.921 271.772 327.836 309.263 367.294C325.733 384.629 347.807 395.577 371.575 398.2C395.343 400.823 419.272 394.951 439.127 381.624L512.335 457.766C513.241 458.708 514.485 459.252 515.792 459.277C517.099 459.303 518.363 458.808 519.306 457.902L537.548 440.363C538.49 439.456 539.034 438.213 539.059 436.906C539.085 435.599 538.59 434.335 537.684 433.392L464.495 357.257C478.529 338.026 485.338 314.466 483.728 290.713C482.119 266.961 472.192 244.535 455.693 227.373ZM432.89 349.793C422.562 359.721 409.523 366.364 395.419 368.882C381.316 371.4 366.783 369.679 353.658 363.937C340.533 358.196 329.405 348.691 321.682 336.626C313.958 324.56 309.986 310.476 310.268 296.153C310.55 281.83 315.072 267.913 323.264 256.16C331.456 244.407 342.948 235.348 356.289 230.127C369.63 224.905 384.219 223.757 398.213 226.827C412.206 229.897 424.975 237.048 434.904 247.374C441.497 254.231 446.675 262.32 450.142 271.178C453.609 280.036 455.298 289.49 455.111 299.001C454.924 308.511 452.865 317.892 449.052 326.607C445.24 335.322 439.748 343.201 432.89 349.793Z" fill="url(#paint7_linear)"/>
<path d="M329.038 277.426C320.891 277.426 320.878 290.087 329.038 290.087C337.198 290.087 337.198 277.426 329.038 277.426Z" fill="url(#paint8_linear)"/>
<path d="M385.823 236.87C363.898 236.376 343.947 247.374 333.339 263.978C329.876 269.396 339.705 274.184 343.148 268.792C351.931 255.046 368.621 246.315 386.674 246.77C405.592 247.244 422.808 258.067 431.922 273.086C435.378 278.783 444.441 273.606 441.017 267.941C429.934 249.752 408.47 237.409 385.823 236.87Z" fill="url(#paint9_linear)"/>
<path d="M463.638 223.527C454.277 213.791 443.064 206.027 430.657 200.689C418.251 195.352 404.902 192.55 391.397 192.448C377.891 192.347 364.502 194.947 352.016 200.097C339.531 205.247 328.202 212.842 318.696 222.435C280.367 261.075 279.717 323.99 317.208 363.448C333.679 380.782 355.753 391.729 379.521 394.351C403.289 396.972 427.218 391.1 447.072 377.772L520.274 453.92C521.18 454.862 522.424 455.406 523.731 455.432C525.038 455.457 526.302 454.963 527.244 454.057L545.486 436.517C546.429 435.61 546.972 434.367 546.998 433.06C547.023 431.753 546.529 430.489 545.623 429.546L472.414 353.405C486.449 334.177 493.262 310.62 491.657 286.869C490.052 263.118 480.132 240.692 463.638 223.527ZM440.835 345.895C430.508 355.823 417.468 362.466 403.365 364.984C389.261 367.502 374.728 365.781 361.603 360.039C348.478 354.298 337.35 344.794 329.627 332.728C321.904 320.663 317.932 306.578 318.213 292.255C318.495 277.932 323.017 264.015 331.209 252.262C339.401 240.51 350.894 231.45 364.234 226.229C377.575 221.008 392.165 219.86 406.158 222.93C420.151 226 432.92 233.15 442.849 243.477C449.442 250.334 454.62 258.422 458.087 267.28C461.555 276.138 463.243 285.592 463.056 295.103C462.869 304.614 460.81 313.994 456.998 322.709C453.185 331.424 447.693 339.303 440.835 345.895Z" fill="#4B698D"/>
<path d="M336.983 273.573C328.837 273.573 328.824 286.234 336.983 286.234C345.143 286.234 345.143 273.573 336.983 273.573Z" fill="#4B698D"/>
<path d="M393.769 233.024C371.843 232.531 351.893 243.529 341.284 260.133C337.821 265.551 347.65 270.338 351.093 264.946C359.877 251.201 376.566 242.47 394.62 242.924C413.537 243.399 430.753 254.221 439.867 269.24C443.323 274.938 452.386 269.76 448.962 264.095C437.86 245.854 416.422 233.511 393.769 233.024Z" fill="#4B698D"/>
<path d="M81.173 431.288H78.8992V444.182H81.173V431.288Z" fill="#47E6B1"/>
<path d="M86.4871 438.869V436.595H73.5917V438.869H86.4871Z" fill="#47E6B1"/>
<path d="M371.512 5.16445C370.884 4.89127 370.379 4.3966 370.092 3.77478C369.806 3.15296 369.759 2.4475 369.959 1.79293C369.991 1.69168 370.011 1.58701 370.018 1.48112C370.038 1.18007 369.961 0.880445 369.797 0.627097C369.633 0.373749 369.391 0.180303 369.108 0.0757139C368.825 -0.0288752 368.516 -0.0389824 368.227 0.0469061C367.937 0.132794 367.684 0.310058 367.503 0.552165C367.441 0.636672 367.389 0.728252 367.348 0.825005C367.074 1.45272 366.58 1.95792 365.958 2.24427C365.336 2.53062 364.631 2.57807 363.976 2.37759C363.875 2.3458 363.77 2.32618 363.664 2.31912C363.361 2.29722 363.058 2.37494 362.803 2.54047C362.548 2.706 362.354 2.95029 362.25 3.23623C362.147 3.52217 362.139 3.83412 362.229 4.12469C362.319 4.41527 362.501 4.66858 362.748 4.84614C362.833 4.90864 362.924 4.96097 363.021 5.00204C363.649 5.27522 364.154 5.76989 364.44 6.39171C364.727 7.01353 364.774 7.71899 364.574 8.37356C364.542 8.47481 364.522 8.57949 364.515 8.68538C364.491 8.99051 364.567 9.29516 364.733 9.55249C364.899 9.80982 365.145 10.0056 365.433 10.1096C365.72 10.2137 366.035 10.2203 366.327 10.1285C366.619 10.0367 366.872 9.85145 367.049 9.60134C367.111 9.51683 367.164 9.42525 367.205 9.3285C367.478 8.70078 367.973 8.19558 368.594 7.90923C369.216 7.62288 369.922 7.57543 370.576 7.77591C370.678 7.8077 370.782 7.82732 370.888 7.83438C371.189 7.85497 371.489 7.7775 371.742 7.61358C371.996 7.44966 372.189 7.2081 372.294 6.92505C372.398 6.642 372.408 6.33269 372.322 6.04342C372.237 5.75415 372.059 5.50047 371.817 5.32036C371.722 5.25552 371.62 5.20311 371.512 5.16445Z" fill="#4B698D"/>
<path d="M89.287 100.756C88.6593 100.482 88.1541 99.9878 87.8677 99.366C87.5813 98.7441 87.5339 98.0387 87.7344 97.3841C87.7662 97.2829 87.7858 97.1782 87.7929 97.0723C87.8135 96.7713 87.736 96.4716 87.5721 96.2183C87.4081 95.9649 87.1665 95.7715 86.8835 95.6669C86.6004 95.5623 86.2911 95.5522 86.0018 95.6381C85.7125 95.724 85.4588 95.9012 85.2787 96.1433C85.2162 96.2279 85.1639 96.3194 85.1228 96.4162C84.8496 97.0439 84.3549 97.5491 83.7331 97.8355C83.1112 98.1218 82.4058 98.1693 81.7512 97.9688C81.6499 97.937 81.5452 97.9174 81.4393 97.9103C81.1383 97.8897 80.8386 97.9672 80.5853 98.1311C80.3319 98.295 80.1385 98.5366 80.0339 98.8196C79.9293 99.1027 79.9192 99.412 80.0051 99.7013C80.091 99.9905 80.2682 100.244 80.5103 100.424C80.5949 100.487 80.6864 100.539 80.7832 100.58C81.4109 100.853 81.9162 101.348 82.2025 101.97C82.4889 102.592 82.5363 103.297 82.3358 103.952C82.3041 104.053 82.2844 104.158 82.2774 104.264C82.2568 104.565 82.3342 104.864 82.4982 105.118C82.6621 105.371 82.9037 105.564 83.1868 105.669C83.4698 105.774 83.7791 105.784 84.0684 105.698C84.3577 105.612 84.6114 105.435 84.7915 105.193C84.854 105.108 84.9063 105.016 84.9474 104.92C85.2206 104.292 85.7153 103.787 86.3371 103.5C86.959 103.214 87.6645 103.167 88.3191 103.367C88.4203 103.399 88.525 103.418 88.6309 103.426C88.932 103.446 89.2316 103.369 89.485 103.205C89.7383 103.041 89.9318 102.799 90.0364 102.516C90.141 102.233 90.1511 101.924 90.0652 101.635C89.9793 101.345 89.802 101.092 89.5599 100.912C89.4754 100.849 89.3838 100.797 89.287 100.756Z" fill="#77B62B"/>
<path d="M490.624 495.242C489.996 494.969 489.491 494.475 489.205 493.853C488.918 493.231 488.871 492.526 489.071 491.871C489.103 491.77 489.123 491.665 489.13 491.559C489.15 491.258 489.073 490.958 488.909 490.705C488.745 490.452 488.503 490.258 488.22 490.154C487.937 490.049 487.628 490.039 487.339 490.125C487.049 490.211 486.796 490.388 486.616 490.63C486.553 490.715 486.501 490.806 486.46 490.903C486.187 491.531 485.692 492.036 485.07 492.322C484.448 492.609 483.743 492.656 483.088 492.456C482.987 492.424 482.882 492.404 482.776 492.397C482.475 492.377 482.176 492.454 481.922 492.618C481.669 492.782 481.475 493.023 481.371 493.306C481.266 493.59 481.256 493.899 481.342 494.188C481.428 494.477 481.605 494.731 481.847 494.911C481.932 494.974 482.023 495.026 482.12 495.067C482.748 495.34 483.253 495.835 483.539 496.457C483.826 497.079 483.873 497.784 483.673 498.439C483.641 498.54 483.621 498.644 483.614 498.75C483.594 499.051 483.671 499.351 483.835 499.604C483.999 499.858 484.241 500.051 484.524 500.156C484.807 500.26 485.116 500.27 485.405 500.185C485.695 500.099 485.948 499.921 486.128 499.679C486.191 499.595 486.243 499.503 486.284 499.406C486.557 498.779 487.052 498.274 487.674 497.987C488.296 497.701 489.001 497.653 489.656 497.854C489.757 497.886 489.862 497.905 489.968 497.912C490.269 497.933 490.568 497.855 490.822 497.692C491.075 497.528 491.269 497.286 491.373 497.003C491.478 496.72 491.488 496.411 491.402 496.121C491.316 495.832 491.139 495.578 490.897 495.398C490.812 495.336 490.721 495.284 490.624 495.242Z" fill="#77B62B"/>
<path d="M208.633 53.4895C211.148 53.4895 213.187 51.4507 213.187 48.9357C213.187 46.4207 211.148 44.3818 208.633 44.3818C206.118 44.3818 204.079 46.4207 204.079 48.9357C204.079 51.4507 206.118 53.4895 208.633 53.4895Z" fill="#FAB442"/>
<path d="M534.858 110.383C537.373 110.383 539.412 108.344 539.412 105.829C539.412 103.314 537.373 101.275 534.858 101.275C532.343 101.275 530.304 103.314 530.304 105.829C530.304 108.344 532.343 110.383 534.858 110.383Z" fill="#FAB442"/>
<path d="M509.067 246.179C511.582 246.179 513.621 244.14 513.621 241.625C513.621 239.11 511.582 237.071 509.067 237.071C506.552 237.071 504.513 239.11 504.513 241.625C504.513 244.14 506.552 246.179 509.067 246.179Z" fill="#4B698D"/>
</g>
<defs>
<linearGradient id="paint0_linear" x1="245.806" y1="476.046" x2="245.806" y2="84.5867" gradientUnits="userSpaceOnUse">
<stop stop-color="#808080" stop-opacity="0.25"/>
<stop offset="0.54" stop-color="#808080" stop-opacity="0.12"/>
<stop offset="1" stop-color="#808080" stop-opacity="0.1"/>
</linearGradient>
<linearGradient id="paint1_linear" x1="28442.4" y1="43013.9" x2="28442.4" y2="26141.7" gradientUnits="userSpaceOnUse">
<stop stop-color="#808080" stop-opacity="0.25"/>
<stop offset="0.54" stop-color="#808080" stop-opacity="0.12"/>
<stop offset="1" stop-color="#808080" stop-opacity="0.1"/>
</linearGradient>
<linearGradient id="paint2_linear" x1="26125.4" y1="23750.3" x2="26125.4" y2="17198.1" gradientUnits="userSpaceOnUse">
<stop stop-color="#808080" stop-opacity="0.25"/>
<stop offset="0.54" stop-color="#808080" stop-opacity="0.12"/>
<stop offset="1" stop-color="#808080" stop-opacity="0.1"/>
</linearGradient>
<linearGradient id="paint3_linear" x1="28442.4" y1="64789.1" x2="28442.4" y2="47916.9" gradientUnits="userSpaceOnUse">
<stop stop-color="#808080" stop-opacity="0.25"/>
<stop offset="0.54" stop-color="#808080" stop-opacity="0.12"/>
<stop offset="1" stop-color="#808080" stop-opacity="0.1"/>
</linearGradient>
<linearGradient id="paint4_linear" x1="26125.4" y1="37370.6" x2="26125.4" y2="30818.4" gradientUnits="userSpaceOnUse">
<stop stop-color="#808080" stop-opacity="0.25"/>
<stop offset="0.54" stop-color="#808080" stop-opacity="0.12"/>
<stop offset="1" stop-color="#808080" stop-opacity="0.1"/>
</linearGradient>
<linearGradient id="paint5_linear" x1="221120" y1="271507" x2="255336" y2="99327.6" gradientUnits="userSpaceOnUse">
<stop stop-color="#808080" stop-opacity="0.25"/>
<stop offset="0.54" stop-color="#808080" stop-opacity="0.12"/>
<stop offset="1" stop-color="#808080" stop-opacity="0.1"/>
</linearGradient>
<linearGradient id="paint6_linear" x1="49991.1" y1="114314" x2="55556.8" y2="86306.4" gradientUnits="userSpaceOnUse">
<stop stop-color="#808080" stop-opacity="0.25"/>
<stop offset="0.54" stop-color="#808080" stop-opacity="0.12"/>
<stop offset="1" stop-color="#808080" stop-opacity="0.1"/>
</linearGradient>
<linearGradient id="paint7_linear" x1="410.315" y1="459.28" x2="410.315" y2="196.295" gradientUnits="userSpaceOnUse">
<stop stop-color="#B3B3B3" stop-opacity="0.25"/>
<stop offset="0.54" stop-color="#B3B3B3" stop-opacity="0.1"/>
<stop offset="1" stop-color="#B3B3B3" stop-opacity="0.05"/>
</linearGradient>
<linearGradient id="paint8_linear" x1="329.038" y1="290.08" x2="329.038" y2="277.426" gradientUnits="userSpaceOnUse">
<stop stop-opacity="0.12"/>
<stop offset="0.55" stop-opacity="0.09"/>
<stop offset="1" stop-opacity="0.02"/>
</linearGradient>
<linearGradient id="paint9_linear" x1="84935" y1="18998.3" x2="84935" y2="16692.3" gradientUnits="userSpaceOnUse">
<stop stop-opacity="0.12"/>
<stop offset="0.55" stop-opacity="0.09"/>
<stop offset="1" stop-opacity="0.02"/>
</linearGradient>
<clipPath id="clip0">
<rect width="547" height="506" fill="white"/>
</clipPath>
</defs>
</svg>
