<svg width="955" height="713" viewBox="0 0 955 713" fill="none" xmlns="http://www.w3.org/2000/svg">
<g clip-path="url(#clip0)">
<path d="M788.254 245.868H308.254V624.868H788.254V245.868Z" fill="#F2F2F2"/>
<path d="M721.254 580.868H239.254V199.868H721.254V580.868ZM241.254 578.868H719.254V201.868H241.254V578.868Z" fill="#4B698D"/>
<path d="M577.648 698.167H21.5409V700.528H577.648V698.167Z" fill="#4B698D"/>
<path d="M413.254 503.238L412.973 305.238L637.113 403.921L413.254 503.238Z" fill="#D0CDE1"/>
<path d="M367.729 313.851C367.729 313.851 388.846 290.121 393.23 299.164C397.615 308.207 371.769 321.955 371.769 321.955L367.729 313.851Z" fill="#A0616A"/>
<path d="M378.784 323.638C378.784 323.638 369.394 327.088 366.674 331.278C363.954 335.478 354.904 339.858 354.904 339.858L354.114 340.328L345.574 345.418L334.384 352.078L298.964 373.178L252.214 391.898C251.854 385.368 251.504 378.838 251.174 372.658C251.074 370.808 251.054 368.968 251.094 367.128C251.684 366.948 252.284 366.788 252.894 366.658C266.724 363.708 272.604 359.418 272.604 359.418L299.644 343.108C299.644 343.108 320.874 329.578 334.344 323.228C336.234 322.328 337.974 321.578 339.474 321.028C351.674 316.548 371.394 309.308 371.394 309.308L371.624 309.758L376.504 319.208L378.784 323.638Z" fill="#D0CDE1"/>
<path opacity="0.1" d="M378.784 323.638C378.784 323.638 369.394 327.088 366.674 331.278C363.954 335.478 354.904 339.858 354.904 339.858L354.114 340.328L345.574 345.418L334.384 352.078L298.964 373.178L252.214 391.898C251.854 385.368 251.504 378.838 251.174 372.658C251.074 370.808 251.054 368.968 251.094 367.128C251.684 366.948 252.284 366.788 252.894 366.658C266.724 363.708 272.604 359.418 272.604 359.418L299.644 343.108C299.644 343.108 320.874 329.578 334.344 323.228C336.234 322.328 337.974 321.578 339.474 321.028C351.674 316.548 371.394 309.308 371.394 309.308L371.624 309.758L376.504 319.208L378.784 323.638Z" fill="#2F2E41"/>
<path d="M371.394 503.027L371.114 305.027L595.254 403.709L371.394 503.027Z" fill="#77B62B"/>
<path opacity="0.2" d="M580.932 397.404L371.376 490.375L371.394 503.027L595.254 403.709L580.932 397.404Z" fill="#2F2E41"/>
<path d="M308.754 666.368V687.368H324.754L322.754 665.368L308.754 666.368Z" fill="#A0616A"/>
<path d="M246.754 665.368L241.754 689.368L261.754 690.368V665.368H246.754Z" fill="#A0616A"/>
<path d="M254.754 475.368C254.754 475.368 249.754 473.368 248.754 491.368C247.754 509.368 246.754 571.368 246.754 571.368C246.754 571.368 236.754 626.368 240.754 642.368C244.754 658.368 244.754 669.368 244.754 669.368H262.754L263.754 659.368L264.754 632.368C264.754 632.368 274.754 607.368 271.754 584.368L295.754 511.368L307.754 589.368C307.754 589.368 302.754 608.368 303.754 628.368C304.754 648.368 304.754 674.368 304.754 674.368L324.754 672.368L340.754 578.368C340.754 578.368 349.754 484.368 340.754 479.368C331.754 474.368 254.754 475.368 254.754 475.368Z" fill="#2F2E41"/>
<path d="M314.754 680.368C314.754 680.368 305.754 668.368 301.754 677.368C297.754 686.368 288.754 698.368 295.754 704.368C302.754 710.368 311.754 712.368 314.754 710.368C317.754 708.368 348.754 692.368 348.754 692.368C348.754 692.368 354.754 675.368 342.754 674.368C330.754 673.368 326.754 670.368 326.754 670.368L314.754 680.368Z" fill="#2F2E41"/>
<path d="M245.754 683.368C245.754 683.368 245.754 673.368 241.754 676.368C237.754 679.368 234.754 692.368 234.754 692.368C234.754 692.368 210.754 711.368 233.754 711.368C256.754 711.368 271.754 715.368 269.754 706.368C267.754 697.368 264.754 682.368 264.754 682.368C264.754 682.368 254.754 669.368 245.754 683.368Z" fill="#2F2E41"/>
<path d="M308.754 302.368C322.561 302.368 333.754 291.175 333.754 277.368C333.754 263.561 322.561 252.368 308.754 252.368C294.947 252.368 283.754 263.561 283.754 277.368C283.754 291.175 294.947 302.368 308.754 302.368Z" fill="#A0616A"/>
<path d="M289.254 285.868C289.254 285.868 285.254 314.868 279.254 318.868C273.254 322.868 319.254 323.868 319.254 323.868C319.254 323.868 316.254 300.868 319.254 294.868L289.254 285.868Z" fill="#A0616A"/>
<path d="M367.754 484.368C367.754 484.368 382.754 512.368 372.754 513.368C362.754 514.368 358.754 485.368 358.754 485.368L367.754 484.368Z" fill="#A0616A"/>
<path d="M285.656 295.522C289.45 297.371 293.759 297.88 297.878 296.964C301.998 296.048 305.686 293.762 308.339 290.479C311.702 286.083 313.652 279.682 319.016 278.315C322.518 277.423 326.556 279.107 329.683 277.295C335.518 273.914 331.42 263.196 336.838 259.181C334.507 259.149 332.274 258.242 330.58 256.641C328.886 255.04 327.856 252.86 327.693 250.535C327.554 252.407 325.093 253.246 323.298 252.699C321.502 252.151 320.093 250.77 318.416 249.926C315.488 248.45 312.021 248.719 308.756 249.023C300.412 249.799 291.409 250.858 285.28 256.573C279.52 261.942 277.605 270.529 278.727 278.323C279.849 286.117 281.829 288.675 286.022 295.341L285.656 295.522Z" fill="#2F2E41"/>
<path d="M347.754 329.368L347.614 330.368L345.574 345.418L337.204 407.078L336.754 410.368C336.754 410.368 337.744 412.778 338.984 416.618C341.084 423.088 343.924 433.618 344.034 443.538C344.068 445.486 343.974 447.433 343.754 449.368C342.254 462.118 341.874 474.868 341.784 480.448C341.754 482.308 341.754 483.368 341.754 483.368L250.754 480.368C251.322 479.088 251.826 477.779 252.264 476.448C255.552 466.784 256.742 456.529 255.754 446.368C254.864 437.908 253.474 414.858 252.214 391.898C251.854 385.368 251.504 378.838 251.174 372.658C251.074 370.808 251.054 368.968 251.094 367.128C251.338 356.375 253.942 345.807 258.722 336.172C263.502 326.536 270.34 318.069 278.754 311.368C278.754 311.368 280.594 311.448 283.494 311.618C292.614 312.148 312.254 313.528 318.424 315.798C318.707 315.898 318.985 316.015 319.254 316.148C322.234 317.618 328.464 320.528 334.344 323.228C341.294 326.428 347.754 329.368 347.754 329.368Z" fill="#D0CDE1"/>
<path d="M333.754 330.368H347.754C347.754 330.368 359.754 344.368 357.754 358.368C355.754 372.368 357.754 379.368 357.754 379.368L363.754 410.368C363.754 410.368 370.754 442.368 370.754 455.368V489.368L354.754 491.368C354.754 491.368 354.754 481.368 351.754 477.368C348.754 473.368 347.754 463.368 347.754 463.368L335.754 399.368L333.754 330.368Z" fill="#D0CDE1"/>
<path d="M129.287 312.409L100.455 323.56L111.22 351.393L140.051 340.242L129.287 312.409Z" fill="#77B62B"/>
<path d="M134.841 338.047L104.493 349.785L93.1614 320.487L123.51 308.749L134.841 338.047ZM105.443 347.733L132.757 337.169L122.559 310.801L95.2454 321.365L105.443 347.733Z" fill="#4B698D"/>
<path d="M875.068 121.716L865.018 92.4829L836.797 102.185L846.847 131.418L875.068 121.716Z" fill="#77B62B"/>
<path d="M849.238 126.295L838.659 95.5235L868.365 85.3105L878.945 116.082L849.238 126.295ZM840.673 96.5515L850.195 124.246L876.93 115.054L867.409 87.3598L840.673 96.5515Z" fill="#4B698D"/>
<path d="M84.4935 699.673L83.2263 699.198C82.9479 699.093 55.2338 688.475 42.2513 664.399C29.2683 640.322 35.6255 611.332 35.6912 611.043L35.9904 609.723L37.257 610.198C37.5355 610.303 65.249 620.921 78.232 644.997C91.215 669.074 84.8578 698.064 84.7921 698.353L84.4935 699.673ZM44.3303 663.278C55.3065 683.635 77.207 694.07 82.7559 696.452C83.8109 690.504 87.1195 666.455 76.1531 646.118C65.1879 625.783 43.2787 615.332 37.7275 612.944C36.6719 618.895 33.3645 642.942 44.3303 663.278Z" fill="#4B698D"/>
<path d="M52.173 655.953C75.5042 669.99 84.4898 697.871 84.4898 697.871C84.4898 697.871 55.648 702.994 32.3168 688.957C8.98557 674.92 0 647.039 0 647.039C0 647.039 28.8418 641.917 52.173 655.953Z" fill="#77B62B"/>
<path d="M954.127 25.0612H21.127V27.0612H954.127V25.0612Z" fill="#4B698D"/>
<path d="M40.1882 18.1224C45.1925 18.1224 49.2494 14.0656 49.2494 9.06122C49.2494 4.05685 45.1925 0 40.1882 0C35.1838 0 31.127 4.05685 31.127 9.06122C31.127 14.0656 35.1838 18.1224 40.1882 18.1224Z" fill="#4B698D"/>
<path d="M68.127 18.1224C73.1313 18.1224 77.1882 14.0656 77.1882 9.06122C77.1882 4.05685 73.1313 0 68.127 0C63.1226 0 59.0657 4.05685 59.0657 9.06122C59.0657 14.0656 63.1226 18.1224 68.127 18.1224Z" fill="#4B698D"/>
<path d="M96.0657 18.1224C101.07 18.1224 105.127 14.0656 105.127 9.06122C105.127 4.05685 101.07 0 96.0657 0C91.0614 0 87.0045 4.05685 87.0045 9.06122C87.0045 14.0656 91.0614 18.1224 96.0657 18.1224Z" fill="#4B698D"/>
<path d="M580.883 93.4544H367.48V95.8522H580.883V93.4544Z" fill="#4B698D"/>
<path d="M580.883 110.239H367.48V112.637H580.883V110.239Z" fill="#4B698D"/>
<path d="M580.883 127.024H367.48V129.421H580.883V127.024Z" fill="#4B698D"/>
</g>
<defs>
<clipPath id="clip0">
<rect width="954.127" height="712.254" fill="white"/>
</clipPath>
</defs>
</svg>
